<?xml version="1.0" encoding="utf-8"?>
<!-- Generator: Adobe Illustrator 25.0.1, SVG Export Plug-In . SVG Version: 6.00 Build 0)  -->
<svg version="1.1" id="Layer_1" xmlns="http://www.w3.org/2000/svg" xmlns:xlink="http://www.w3.org/1999/xlink" x="0px" y="0px"
	 viewBox="0 0 16 16" style="enable-background:new 0 0 16 16;" xml:space="preserve">
<style type="text/css">
	.st0{fill:#FFFFFF;}
</style>
<path class="st0" d="M16,8c0,4.4-3.6,8-8,8s-8-3.6-8-8s3.6-8,8-8S16,3.6,16,8 M6.2,5C5.6,5,5,5.6,5,6.2v3.5C5,10.4,5.6,11,6.2,11
	s1.2-0.6,1.2-1.2V6.2C7.5,5.6,6.9,5,6.2,5 M9.8,5C9.1,5,8.5,5.6,8.5,6.2v3.5c0,0.7,0.6,1.2,1.2,1.2S11,10.4,11,9.7V6.2
	C11,5.6,10.4,5,9.8,5"/>
</svg>
