<?xml version="1.0" encoding="utf-8"?>
<!-- Generator: Adobe Illustrator 25.0.1, SVG Export Plug-In . SVG Version: 6.00 Build 0)  -->
<svg version="1.1" id="Layer_1" xmlns="http://www.w3.org/2000/svg" xmlns:xlink="http://www.w3.org/1999/xlink" x="0px" y="0px"
	 viewBox="0 0 48 48" style="enable-background:new 0 0 48 48;" xml:space="preserve">
<style type="text/css">
	.st0{display:none;}
	.st1{display:inline;fill:none;stroke:#020203;stroke-width:3;stroke-linecap:round;stroke-linejoin:round;}
	.st2{fill:none;stroke:#000000;stroke-width:3;}
	.st3{fill:none;stroke:#FFFFFF;stroke-width:3;}
</style>
<g id="Layer_1_1_" class="st0">
	<path class="st1" d="M2.6,7.4h42.7"/>
	<path class="st1" d="M2.6,24h42.7"/>
	<path class="st1" d="M2.6,40.6h42.7"/>
</g>
<g id="Layer_2_1_" class="st0">
	<path class="st1" d="M34.2,34.1l10.1,10.1"/>
	<path class="st1" d="M4,21.1c0,9.5,7.7,17.3,17.3,17.3c4.8,0,9.1-1.9,12.2-5.1c3.1-3.1,5-7.4,5-12.2c0-9.5-7.7-17.3-17.3-17.3
		C11.7,3.9,4,11.6,4,21.1z"/>
</g>
<circle class="st2" cx="-151.5" cy="17.6" r="22"/>
<path class="st3" d="M1.6,47c0-12.2,10-22,22.4-22s22.4,9.9,22.4,22"/>
<ellipse class="st3" cx="24" cy="14.9" rx="9.8" ry="10.1"/>
<ellipse class="st2" cx="-151.5" cy="17.6" rx="9.8" ry="22"/>
<path class="st2" d="M-173.4,17.6h43.9"/>
</svg>
