<svg width="264" height="320" viewBox="0 0 264 320" fill="none" xmlns="http://www.w3.org/2000/svg">
<path d="M7.45652 192.381C7.45652 192.381 7.38394 192.492 7.34766 192.529C7.34766 192.529 7.34766 192.529 7.45652 192.381Z" fill="white"/>
<path d="M263.224 314.312C260.996 313.345 258.876 312.118 256.684 311.077C252.884 309.292 248.938 307.805 244.919 306.615C241.74 305.685 238.525 304.904 235.273 304.272C224.384 302.376 213.35 302.673 202.462 304.123C191.427 305.574 180.612 308.065 169.724 310.296C159.201 312.453 148.641 314.163 137.972 315.13C142.539 313.717 146.997 311.932 151.308 309.85C162.416 304.495 172.574 297.133 181.379 288.431C189.966 279.953 197.346 270.247 202.973 259.501C208.637 248.717 212.51 237.041 214.775 225.03C215.36 221.869 215.871 218.634 216.273 215.436C216.675 212.201 217.077 208.929 217.15 205.656C217.26 199.335 215.213 192.865 211.888 187.584C207.577 180.631 200.817 175.313 193.912 171.186C185.471 166.203 176.191 162.745 166.764 160.29C164.426 159.695 162.051 159.138 159.676 158.654C159.676 158.431 159.676 158.208 159.639 157.948C161.064 153.337 162.416 148.726 163.768 144.077C165.631 137.607 167.422 131.1 169.212 124.592C175.058 114.85 180.795 105.07 186.458 95.253C192.633 84.5436 198.735 73.7599 204.727 62.9389C210.317 52.8617 215.835 42.7101 221.133 32.4469C223.909 27.1294 226.723 21.5144 227.125 15.3788C227.49 9.65225 224.859 4.03726 219.635 1.54584C214.775 -0.759657 209.075 -0.424988 204.398 2.1408C199.356 4.89252 195.739 9.87537 193.473 15.1185C191.939 18.6511 190.733 22.3325 189.454 25.9395C187.079 32.4469 184.741 38.9915 182.402 45.5362C179.406 53.8657 176.374 62.158 173.377 70.4876C170.308 78.8915 167.239 87.2582 164.133 95.6249C161.539 102.541 158.945 109.458 156.241 116.337C155.803 117.49 155.328 118.643 154.853 119.795L127.924 155.084C115.172 154.712 102.384 155.382 89.7054 156.72C78.8536 157.873 68.0018 159.621 57.4057 162.261C49.4405 164.269 41.6213 166.798 34.0945 170.07C28.6503 172.413 23.3889 175.202 18.4928 178.511C15.0947 180.817 11.8063 183.42 8.88326 186.32C7.16598 188.068 5.5583 189.927 4.16986 191.972C2.81795 193.98 1.79489 196.286 1.1372 198.628C0.260292 201.715 0.150678 204.764 0.625672 207.739C0.150678 209.858 -0.0320122 212.09 0.00452582 214.395C0.11414 220.642 1.42951 226.889 2.89103 232.913C4.42563 239.309 5.92368 245.891 8.22558 252.064C10.5275 258.237 13.5601 264.112 17.2139 269.578C24.4119 280.436 33.6195 289.919 43.8136 297.839C53.8981 305.685 65.298 311.932 77.5382 315.614C83.2016 317.324 89.0477 318.403 94.8938 319.146C100.411 319.853 106.001 320.15 111.555 319.927C114.661 319.778 117.73 319.481 120.799 318.96C122.407 318.96 124.015 318.923 125.622 318.886C136.949 318.514 148.276 317.324 159.456 315.353C170.71 313.383 181.818 310.668 193.071 308.66C204.106 306.689 215.323 305.35 226.504 306.169C229.207 306.354 231.911 306.689 234.579 307.173C239.767 308.214 244.919 309.552 249.888 311.412C250.801 311.746 251.751 312.118 252.665 312.527C253.213 312.75 254.053 313.122 254.821 313.494C256.099 314.089 257.378 314.721 258.657 315.391C259.68 315.911 260.74 316.469 261.799 316.952C262.53 317.287 263.371 317.175 263.809 316.395C264.174 315.762 264.028 314.647 263.261 314.349L263.224 314.312ZM150.505 284.899C153.756 288.766 153.026 294.715 150.651 298.806C149.226 301.297 147.033 303.268 144.878 305.09C142.722 306.912 140.384 308.511 137.936 309.924C133.222 312.602 128.107 314.387 122.845 315.502C121.64 315.688 120.434 315.837 119.228 315.948C114.661 315.948 110.094 315.725 105.526 315.316C100.74 314.87 95.9899 314.163 91.2765 313.122C87.0381 312.193 82.7631 311.114 78.7805 309.404C75.3094 307.916 71.8748 305.983 69.0979 303.38C66.7595 301.186 64.7499 298.322 64.6037 295.125C64.4211 291.071 66.9056 287.464 69.646 284.713C73.0075 281.329 77.4286 279.284 81.9228 277.833C89.2669 275.453 97.013 274.301 104.722 273.817C112.724 273.334 120.836 273.557 128.728 274.933C135.305 276.086 142.137 277.982 147.582 282.11C148.495 282.816 149.628 283.857 150.468 284.861L150.505 284.899ZM205.129 213.094C205.129 213.094 204.983 213.428 204.91 213.577C204.654 214.135 204.362 214.693 204.033 215.25C202.973 217.147 201.658 219.043 200.489 220.531C195.666 226.592 189.491 231.352 182.804 235.07C176.41 238.603 169.468 241.317 162.379 242.916C158.981 243.697 155.583 244.366 152.149 244.961C145.791 246.077 139.47 246.969 133.039 247.676C124.526 248.606 115.976 249.163 107.426 249.312C97.7437 249.498 88.0611 249.126 78.4151 248.085C68.3306 246.969 58.3192 245.073 48.6001 242.135C38.8444 239.198 29.4176 235.144 20.7581 229.678C19.662 228.972 18.5293 228.265 17.4697 227.521C17.2139 227.336 16.9582 227.15 16.7024 226.964C16.5562 226.852 16.4101 226.741 16.2639 226.629C16.2639 226.629 15.862 226.294 15.7524 226.22C13.3774 224.286 11.1852 222.092 9.24864 219.713C6.8006 216.701 4.79101 213.242 3.80448 209.449C3.65833 208.892 3.54871 208.334 3.4391 207.813C3.80448 206.363 4.35255 204.95 5.19292 203.648C6.39868 201.789 7.82366 200.153 9.3948 198.591C16.6659 191.377 26.2754 186.692 35.6291 182.973C45.202 179.18 55.1404 176.317 65.1883 174.123C78.6343 171.148 92.263 169.103 106.001 168.508C109.619 168.36 113.199 168.285 116.817 168.322C111.847 173.826 106.769 179.218 102.128 185.019C98.4745 189.592 95.0399 194.426 92.5919 199.818C91.4226 202.384 90.4361 205.099 89.815 207.85C89.5227 209.226 89.2304 210.639 89.2304 212.09C89.2304 213.54 89.4496 215.027 89.815 216.44C90.9842 220.94 93.5784 225.29 97.1956 228.228C97.1956 229.158 97.3053 230.087 97.4149 231.017C97.5976 232.579 97.8168 234.215 98.4745 235.665C99.0591 236.929 99.936 238.045 100.886 239.012C102.969 241.094 105.599 242.767 108.376 243.697C112.98 245.259 118.388 243.511 122.115 240.35C123.795 240.165 125.476 239.867 127.084 239.458C129.605 238.826 132.126 237.971 134.355 236.669C136.328 235.516 137.862 233.955 139.251 232.132C140.786 230.162 142.174 228.042 143.38 225.811C146.084 220.865 148.057 215.548 149.737 210.156C151.564 204.281 152.989 198.294 154.268 192.27C155.583 186.06 156.68 179.813 157.776 173.565C157.849 173.231 157.885 172.859 157.958 172.524C161.247 173.156 164.535 173.937 167.751 174.867C174.437 176.801 181.05 179.18 187.262 182.416C193.327 185.576 199.612 189.63 203.448 195.468C205.165 198.071 206.335 201.008 206.554 204.057C206.81 207.218 206.115 210.119 205.019 213.056L205.129 213.094ZM130.701 158.171C129.568 159.918 128.509 161.778 127.522 163.637C126.938 164.306 126.353 164.976 125.732 165.682C124.928 165.645 124.161 165.608 123.357 165.571C123.54 165.347 123.759 165.087 123.941 164.864C125.768 162.67 127.522 160.402 129.239 158.134C129.714 158.134 130.189 158.134 130.701 158.208V158.171ZM152.551 148.317C152.551 148.317 152.843 148.54 152.953 148.688C153.245 148.986 153.501 149.283 153.756 149.581C153.756 149.618 153.903 149.767 153.903 149.767C153.976 149.878 154.049 149.99 154.122 150.064C154.268 150.287 154.414 150.511 154.524 150.734C154.816 151.217 155.035 151.7 155.291 152.221C155.656 153.076 156.095 154.527 156.314 155.679C156.424 156.274 156.533 156.906 156.606 157.539C156.57 157.687 156.497 157.836 156.46 158.022C152.258 157.241 148.02 156.646 143.782 156.163C142.137 155.307 140.237 155.01 138.447 155.419C138.191 155.456 137.936 155.531 137.716 155.605C137.278 155.605 136.803 155.531 136.364 155.493C136.364 155.493 136.437 155.419 136.437 155.382C137.241 154.415 138.082 153.523 138.995 152.667C139.909 151.775 140.749 151.105 141.735 150.436C144.001 148.874 146.778 147.61 149.518 147.536C150.139 147.536 150.578 147.536 151.053 147.647C151.71 147.796 151.893 147.87 152.405 148.205C152.478 148.279 152.916 148.614 152.624 148.354L152.551 148.317ZM120.836 237.45C120.397 237.45 119.922 237.487 119.484 237.524C118.972 237.524 118.461 237.524 117.949 237.524C117.693 237.524 117.401 237.524 117.145 237.45C117.036 237.45 116.926 237.45 116.78 237.45C116.78 237.45 116.743 237.45 116.707 237.45C116.634 237.45 116.561 237.45 116.488 237.45C115.209 237.227 113.93 236.818 112.761 236.297C111.299 235.665 109.911 234.847 108.669 233.843C108.303 233.546 107.938 233.211 107.572 232.876C107.938 232.951 108.303 232.988 108.669 233.025C111.299 233.322 114.113 232.988 116.232 231.24C117.876 229.864 118.899 227.819 119.74 225.848C120.872 223.134 121.713 220.27 122.626 217.481C123.649 214.246 124.745 210.974 126.061 207.85C127.376 204.727 128.947 201.789 130.591 198.852C133.588 193.46 136.839 188.179 139.909 182.825C142.174 178.92 144.439 174.941 146.23 170.777C146.266 170.777 146.339 170.777 146.376 170.777C148.312 171.037 150.212 171.334 152.112 171.632C148.787 181.598 145.134 191.489 140.968 201.157C135.889 212.945 130.043 224.398 122.955 235.07C122.334 236 121.64 236.855 120.836 237.599V237.45ZM133.113 162.112C134.611 160.737 136.328 159.361 138.155 158.617C139.726 158.729 141.297 158.877 142.868 159.063C143.526 159.509 144.037 160.067 144.476 160.811C144.622 161.071 144.805 161.331 144.914 161.629C144.987 161.778 145.024 161.889 145.097 162.038C145.097 162.15 145.17 162.261 145.207 162.373C145.207 162.447 145.207 162.521 145.243 162.596C145.243 162.893 145.28 163.191 145.243 163.451C145.243 163.6 145.243 163.749 145.243 163.934C145.243 163.972 145.243 164.046 145.243 164.083C145.243 164.12 145.243 164.158 145.243 164.232C145.097 165.087 144.878 165.905 144.622 166.723C144.549 166.946 144.476 167.17 144.403 167.43C143.051 167.244 141.735 167.095 140.384 166.946C136.839 166.537 133.295 166.203 129.714 165.942C129.788 165.757 129.897 165.608 129.97 165.422C130.993 164.269 132.053 163.191 133.149 162.15L133.113 162.112ZM115.319 227.819C115.172 228.005 115.063 228.154 114.917 228.34C114.77 228.488 114.624 228.674 114.442 228.786C114.405 228.786 114.369 228.86 114.332 228.897C114.332 228.897 114.149 229.046 114.113 229.046C112.286 230.273 109.655 230.124 107.426 229.641C105.709 229.269 104.028 228.711 102.457 227.931C102.457 227.893 102.384 227.856 102.384 227.856C102.128 227.447 101.909 227.075 101.726 226.666C101.726 226.666 101.653 226.48 101.617 226.443C101.58 226.332 101.544 226.257 101.507 226.146C101.434 225.923 101.361 225.662 101.288 225.439C101.142 224.844 100.996 224.249 100.923 223.654C100.849 223.134 100.813 222.576 100.776 222.018C101.251 219.452 102.055 216.924 103.115 214.507C105.526 209.003 108.851 204.02 112.14 199.037C115.318 194.203 118.461 189.369 121.018 184.163C123.466 179.18 125.659 174.049 128.107 169.066C128.143 168.992 128.18 168.917 128.216 168.806C133.222 169.103 138.228 169.587 143.197 170.256C141.187 174.681 138.703 178.92 136.255 183.122C133.259 188.254 130.189 193.348 127.34 198.554C125.695 201.566 124.197 204.615 122.918 207.776C121.676 210.862 120.653 214.06 119.63 217.221C118.826 219.713 118.022 222.501 117.036 224.695C116.597 225.699 116.122 226.666 115.501 227.559C115.428 227.633 115.392 227.745 115.319 227.819ZM118.753 181.969C116.122 187.324 112.944 192.344 109.692 197.327C107.024 201.38 104.284 205.471 102.055 209.821C102.384 208.445 102.749 207.07 103.188 205.731C106.805 194.166 114.076 184.201 121.676 175.053C121.932 174.755 122.188 174.421 122.443 174.123C121.238 176.763 120.032 179.404 118.753 182.007V181.969ZM100.484 230.348C100.484 230.348 100.667 230.571 100.776 230.682C101.288 231.277 101.909 231.798 102.494 232.281C102.64 232.393 102.786 232.504 102.896 232.616C103.042 232.727 103.151 232.839 103.298 232.913C103.334 232.913 103.371 232.988 103.407 232.988C103.699 233.248 104.028 233.471 104.321 233.731C105.307 234.587 106.184 235.516 107.207 236.334C108.486 237.301 109.838 238.119 111.299 238.789C112.944 239.532 114.624 240.053 116.378 240.313C114.369 241.131 112.067 241.54 110.13 241.057C107.719 240.462 105.38 239.086 103.517 237.338C102.567 236.483 101.799 235.591 101.215 234.438C101.032 234.066 100.849 233.546 100.74 232.951C100.594 232.207 100.448 231.463 100.374 230.682C100.374 230.533 100.374 230.385 100.338 230.236C100.374 230.236 100.411 230.273 100.484 230.31V230.348ZM147.362 167.727C147.837 166.314 148.203 164.864 148.276 163.377C148.312 162.001 147.91 160.699 147.253 159.547C150.03 159.918 152.843 160.327 155.583 160.848C155.364 161.592 155.145 162.298 154.889 163.042C154.305 164.901 153.72 166.723 153.099 168.583C151.199 168.285 149.262 167.988 147.326 167.727H147.362ZM123.247 168.508C121.968 169.996 120.69 171.483 119.411 173.008C115.319 177.953 111.336 183.048 107.938 188.551C104.649 193.831 101.909 199.484 100.082 205.471C99.1322 208.594 98.511 211.755 98.1091 214.99C97.8533 217.221 97.6706 219.489 97.7437 221.758C97.5976 222.613 97.4514 223.468 97.3783 224.324C96.4284 223.282 95.588 222.092 94.8938 220.902C93.5418 218.597 92.4822 215.882 92.263 213.279C92.0438 210.751 92.6649 208.334 93.4322 205.842C94.1995 203.314 95.2591 200.971 96.5014 198.628C101.982 188.328 110.386 179.961 118.132 171.409C119.045 170.405 119.922 169.438 120.799 168.434C121.603 168.434 122.407 168.471 123.211 168.508H123.247ZM154.926 173.38C152.843 185.279 150.724 197.215 147.18 208.78C145.609 213.949 143.782 218.932 141.26 223.691C140.164 225.774 138.922 227.819 137.497 229.678C137.351 229.901 136.912 230.422 136.62 230.794C136.255 231.24 135.853 231.686 135.487 232.095C134.72 232.913 134.355 233.211 133.405 233.769C131.322 235.07 129.13 235.814 126.718 236.446C126.243 236.558 125.768 236.669 125.33 236.781C125.805 236.074 126.28 235.33 126.755 234.624C127.632 233.285 128.472 231.947 129.276 230.571C130.993 227.745 132.638 224.881 134.209 221.981C140.712 209.97 146.047 197.29 150.76 184.461C152.295 180.296 153.72 176.131 155.145 171.966C155.145 171.966 155.145 171.966 155.181 171.966C155.108 172.413 155.035 172.896 154.926 173.342V173.38ZM157.191 121.543C157.191 121.543 157.337 121.357 157.374 121.246C157.447 121.134 157.52 121.023 157.556 120.874C160.041 114.738 162.379 108.565 164.718 102.355C167.751 94.3234 170.71 86.2914 173.633 78.2221C176.702 69.8554 179.735 61.5259 182.731 53.1592C185.289 46.0568 187.883 38.9172 190.441 31.8147C192.012 27.5012 193.546 23.1506 195.154 18.837C197.858 11.5115 203.266 3.70259 211.413 3.07044C216.054 2.69858 220.84 4.52067 223.033 8.87136C225.59 13.9286 223.581 20.2129 221.425 25.047C219.233 30.0298 216.529 34.8268 213.971 39.6237C211.304 44.6437 208.564 49.6637 205.823 54.6838C199.977 65.3932 193.985 75.991 187.92 86.5888C182.147 96.6661 176.3 106.706 170.381 116.672C169.102 118.791 167.86 120.948 166.581 123.068C166.545 123.142 166.472 123.216 166.435 123.291C166.362 123.477 166.289 123.625 166.289 123.811C163.695 133.182 161.101 142.553 158.324 151.886C157.776 150.362 157.008 148.949 156.022 147.647C154.56 145.788 152.697 144.672 150.322 144.486C147.253 144.263 144.11 145.453 141.48 146.978C139.105 148.354 137.022 150.213 135.159 152.258C134.282 153.225 133.478 154.229 132.674 155.27C132.272 155.27 131.834 155.233 131.432 155.196C135.487 149.916 139.507 144.598 143.562 139.318C148.057 133.405 152.587 127.493 157.081 121.617L157.191 121.543ZM5.01023 196.472C5.5583 195.282 6.17945 194.166 6.94675 193.125C7.05636 192.939 7.20251 192.753 7.31213 192.604C7.31213 192.604 7.31213 192.567 7.34867 192.53C7.34867 192.53 7.3852 192.456 7.42174 192.418V192.381C7.42174 192.381 7.45828 192.307 7.49482 192.307C7.8602 191.861 8.18904 191.414 8.55442 191.005C9.46787 189.927 10.4544 188.886 11.4775 187.882C12.7928 186.618 14.1447 185.428 15.5697 184.275C15.6793 184.201 15.7889 184.089 15.8986 184.015C15.8986 184.015 15.8986 184.015 15.9716 183.977C16.1909 183.791 16.4101 183.643 16.6293 183.457C17.0678 183.122 17.5062 182.787 17.9812 182.453C18.9312 181.746 19.9177 181.114 20.9043 180.445C25.8369 177.21 31.0618 174.532 36.4695 172.264C43.9598 169.103 51.7424 166.686 59.6346 164.79C70.0114 162.261 80.5708 160.625 91.1669 159.547C102.603 158.394 114.113 157.762 125.586 158.022C123.613 160.551 121.566 163.005 119.447 165.422C112.761 165.273 106.038 165.422 99.3514 165.942C85.6862 166.984 72.0575 169.289 58.7577 172.561C48.4539 175.09 38.2964 178.362 28.6138 182.75C19.5158 186.878 10.089 192.233 3.91409 200.413C3.80448 200.562 3.69487 200.711 3.58525 200.897C3.87756 199.372 4.35255 197.922 5.01023 196.472ZM73.1171 311.003C61.4615 306.726 50.6462 300.033 41.1463 291.927C31.5368 283.709 22.9139 274.078 16.5562 263.034C13.414 257.567 10.8563 251.766 9.17557 245.668C7.45828 239.458 5.77753 233.174 4.46216 226.852C3.65833 223.022 2.96411 219.006 2.85449 214.99C4.2064 217.816 5.99676 220.419 8.04289 222.799C11.8063 227.187 16.3005 230.496 21.1966 233.434C30.2215 238.826 40.0502 242.842 50.1347 245.705C60.1826 248.568 70.5229 250.353 80.8997 251.357C90.7284 252.324 100.63 252.584 110.495 252.287C119.082 252.027 127.668 251.394 136.182 250.353C142.503 249.61 148.787 248.68 155.072 247.49C158.031 246.932 160.991 246.374 163.914 245.668C172.574 243.586 181.16 239.979 188.65 235.107C194.752 231.166 200.306 226.22 204.544 220.196C206.444 217.519 208.015 214.655 208.892 211.495C209.879 207.999 210.062 204.281 209.185 200.748C208.344 197.364 206.59 194.278 204.398 191.6C199.685 185.799 192.998 181.746 186.348 178.623C179.954 175.573 173.231 173.231 166.435 171.409C163.878 170.739 161.283 170.144 158.653 169.624C159.128 167.021 159.566 164.381 159.712 161.741C161.978 162.224 164.206 162.745 166.472 163.339C175.57 165.719 184.485 169.029 192.596 173.863C199.173 177.767 205.677 182.862 209.696 189.555C212.875 194.836 214.629 201.045 214.19 207.218C213.752 213.503 212.948 219.787 211.706 225.96C209.367 237.524 205.494 248.792 199.904 259.166C194.277 269.615 187.006 278.986 178.529 287.167C169.87 295.534 160.005 302.562 149.153 307.656C147.289 308.548 145.353 309.366 143.416 310.11C143.416 310.11 143.453 310.11 143.489 310.073C148.093 306.838 152.697 302.859 154.67 297.356C156.424 292.522 156.022 286.832 152.66 282.816C148.276 277.685 141.589 275.007 135.268 273.334C127.376 271.251 119.082 270.582 110.934 270.656C102.932 270.731 94.8207 271.549 87.0015 273.371C77.9036 275.491 67.9652 279.358 63.398 288.32C61.6442 291.741 61.1692 295.682 62.6307 299.289C64.0922 302.896 66.8691 305.648 69.9383 307.879C73.4825 310.445 77.4651 312.304 81.5939 313.68C78.7439 312.936 75.894 312.044 73.1171 311.04V311.003Z" fill="white"/>
</svg>
