<svg width="128" height="32" viewBox="0 0 128 32" fill="none" xmlns="http://www.w3.org/2000/svg">
<path fill-rule="evenodd" clip-rule="evenodd" d="M21.2956 3.96162C24.2986 0.40037 30.4597 -0.615245 34.9486 0.338817V0.343214C36.1906 0.60701 36.4168 1.55228 35.6849 2.51074C34.6394 3.88226 34.2468 5.73577 33.8229 7.73657C33.7576 8.04475 33.6916 8.35643 33.6223 8.67038C32.9304 11.8052 30.9476 14.6937 28.1177 15.4587C25.8377 16.0743 24.2631 16.0786 22.888 15.7445C22.4755 15.6478 22.3557 15.4016 22.4977 14.9311C23.8461 10.4642 26.2458 6.03241 29.2842 3.68023C29.5504 3.47359 29.3419 3.21419 28.9737 3.39885C25.0038 5.36853 22.1428 10.5609 20.8831 13.8408C20.6835 14.3684 20.1911 14.298 19.9073 13.854C18.7141 11.9854 18.7673 6.9601 21.2956 3.96162ZM14.2606 1.74884C11.9009 0.122098 7.26561 0.733226 4.50219 3.14696C1.73434 5.5563 0 9.80781 0 16.5302C0 23.2526 1.73434 27.1392 4.50219 29.5485C7.26561 31.9623 11.8432 32.8988 14.2606 30.9467C16.2345 29.3507 16.8067 22.5711 16.8067 16.35C16.8067 8.44926 16.4652 3.27446 14.2606 1.75324V1.74884ZM53.4757 7.70237C53.2983 7.44297 53.0189 7.31547 52.6463 7.31547H48.8715V6.5109C48.8715 6.05805 48.7118 5.7283 48.3969 5.51726C48.0775 5.30623 47.7182 5.2051 47.3102 5.2051C46.9021 5.2051 46.5428 5.31062 46.2234 5.51726C45.9041 5.7283 45.7488 6.05805 45.7488 6.5109V7.31547H41.9741C41.6015 7.31547 41.322 7.44297 41.1446 7.70237C40.9672 7.96177 40.874 8.26514 40.874 8.62126C40.874 8.97739 40.9627 9.28075 41.1446 9.54015C41.322 9.79955 41.6015 9.92705 41.9741 9.92705H44.3496C42.9199 10.8845 41.9785 12.5058 41.9785 14.3419C41.9785 17.2788 44.3871 19.6662 47.3501 19.6662C50.3131 19.6662 52.7217 17.2788 52.7217 14.3419C52.7217 12.5058 51.7803 10.8845 50.3506 9.92705H52.6463C53.0189 9.92705 53.2983 9.79955 53.4757 9.54015C53.6532 9.28075 53.7463 8.97739 53.7463 8.62126C53.7463 8.26514 53.6576 7.96177 53.4757 7.70237ZM60.662 11.4087C61.0346 11.4087 61.3141 11.5362 61.4915 11.7956V11.7868C61.6689 12.0462 61.7576 12.3584 61.7576 12.7321C61.7576 13.1058 61.6689 13.418 61.4915 13.6774C61.3141 13.9368 61.0346 14.0643 60.662 14.0643H58.3422V18.9621C58.3422 19.4149 58.1869 19.7447 57.8676 19.9557C57.5526 20.1623 57.2155 20.2679 56.8074 20.2679C56.3994 20.2679 56.0401 20.1667 55.7207 19.9557C55.4058 19.7447 55.2461 19.4149 55.2461 18.9621V6.5109C55.2461 6.05805 55.4013 5.7283 55.7207 5.51726C56.0401 5.31062 56.4171 5.2051 56.8074 5.2051C57.1978 5.2051 57.5482 5.30623 57.8676 5.51726C58.1825 5.7283 58.3422 6.05805 58.3422 6.5109V11.4087H60.662ZM57.7826 24.9991C58.1552 24.9991 58.4346 25.1266 58.612 25.386H58.6165C58.7983 25.6454 58.8871 25.9752 58.8871 26.3313C58.8871 26.6874 58.7939 26.9908 58.6165 27.2502C58.4391 27.5096 58.1596 27.6371 57.787 27.6371H45.9704C45.1897 27.6371 44.6486 27.492 44.347 27.2018C44.0453 26.9117 43.8945 26.3841 43.8945 25.6279V21.9743C43.8945 21.5214 44.0498 21.1917 44.3691 20.9806C44.6841 20.7696 45.07 20.6641 45.4781 20.6641C45.8861 20.6641 46.2454 20.7696 46.5648 20.9806C46.8797 21.1917 47.0394 21.5214 47.0394 21.9743V24.4408C47.0394 24.8145 47.2301 24.9991 47.6027 24.9991H57.7826ZM69.0847 27.6379C68.304 27.6379 67.7628 27.4928 67.4612 27.2027C67.1596 26.9125 67.0088 26.3893 67.0088 25.6287V20.8628C67.0088 20.1065 67.1596 19.579 67.4612 19.2888C67.7628 18.9986 68.304 18.8535 69.0847 18.8535H80.2404C81.021 18.8535 81.5622 18.9986 81.8638 19.2888C82.1654 19.579 82.3162 20.1021 82.3162 20.8628V25.6287C82.3162 26.3849 82.1654 26.9125 81.8638 27.2027C81.5622 27.4928 81.021 27.6379 80.2404 27.6379H69.0847ZM78.6568 25.0747C79.0294 25.0747 79.2202 24.89 79.2202 24.5163V21.9751C79.2202 21.6058 79.0339 21.4167 78.6568 21.4167H70.6726C70.3 21.4167 70.1093 21.6014 70.1093 21.9751V24.5163C70.1093 24.8857 70.2956 25.0747 70.6726 25.0747H78.6568ZM85.3946 20.2344C85.572 20.4938 85.8515 20.6213 86.2241 20.6213H86.2285H93.8933V26.3325C93.8933 26.7854 94.0486 27.1151 94.3679 27.3262C94.6873 27.5328 95.0466 27.6383 95.4547 27.6383C95.8628 27.6383 96.222 27.5372 96.5414 27.3262C96.8563 27.1151 97.016 26.7854 97.016 26.3325V20.6213H104.681C105.053 20.6213 105.333 20.4938 105.51 20.2344C105.692 19.975 105.781 19.6717 105.781 19.3156C105.781 18.9594 105.688 18.6561 105.51 18.3967C105.333 18.1373 105.053 18.0098 104.681 18.0098H86.2241C85.8515 18.0098 85.572 18.1373 85.3946 18.3967C85.2127 18.6561 85.124 18.9594 85.124 19.3156C85.124 19.6717 85.2172 19.975 85.3946 20.2344ZM103.448 13.7614C103.275 13.5108 103.013 13.3877 102.654 13.3877H100.556V8.67018H102.556C102.916 8.67018 103.177 8.54707 103.35 8.29647C103.523 8.04586 103.608 7.74249 103.608 7.39077C103.608 7.03904 103.523 6.73567 103.35 6.48507C103.177 6.23446 102.916 6.11135 102.556 6.11135H88.349C87.9897 6.11135 87.728 6.23886 87.555 6.48507C87.3821 6.73567 87.2978 7.03904 87.2978 7.39077C87.2978 7.74249 87.3821 8.05026 87.555 8.29647C87.728 8.54707 87.9897 8.67018 88.349 8.67018H90.3495V13.3877H88.2514C87.8922 13.3877 87.6305 13.5152 87.4575 13.7614C87.2845 14.012 87.2002 14.3154 87.2002 14.6671C87.2002 15.0189 87.2845 15.3266 87.4575 15.5728C87.6305 15.8234 87.8922 15.9466 88.2514 15.9466H102.654C103.013 15.9466 103.275 15.8234 103.448 15.5728C103.621 15.3222 103.705 15.0189 103.705 14.6671C103.705 14.3154 103.621 14.0077 103.448 13.7614ZM97.553 13.3877H93.3525V8.67018H97.553V13.3877ZM112.563 10.3101C112.563 9.9408 112.754 9.75614 113.126 9.75614H113.131H124.823C125.196 9.75614 125.475 9.62864 125.652 9.36924C125.834 9.10984 125.923 8.80647 125.923 8.45035C125.923 8.09422 125.83 7.79086 125.652 7.53146C125.475 7.27206 125.196 7.14456 124.823 7.14456H111.494C110.713 7.14456 110.172 7.28965 109.87 7.57982C109.569 7.87 109.418 8.39759 109.418 9.1538V16.9798C109.418 17.7404 109.569 18.2636 109.87 18.5537C110.172 18.8439 110.713 18.989 111.494 18.989H124.823C125.196 18.989 125.475 18.8615 125.652 18.6021C125.834 18.3427 125.923 18.0393 125.923 17.6832C125.923 17.3271 125.83 17.0237 125.652 16.7643C125.475 16.5049 125.196 16.3774 124.823 16.3774H113.126C112.749 16.3774 112.563 16.1884 112.563 15.8191V10.3101ZM108.443 25.6985C108.07 25.6985 107.791 25.571 107.613 25.3116C107.436 25.0522 107.343 24.7488 107.343 24.3927C107.343 24.0366 107.431 23.7068 107.613 23.4474C107.791 23.188 108.07 23.0605 108.443 23.0605H126.9C127.272 23.0605 127.552 23.188 127.729 23.4474C127.906 23.7068 128 24.019 128 24.3927C128 24.7664 127.911 25.0522 127.729 25.3116C127.552 25.571 127.272 25.6985 126.9 25.6985H108.443ZM44.6887 14.3419C44.6887 12.8866 45.8819 11.7039 47.3501 11.7039C48.8183 11.7039 50.0115 12.8866 50.0115 14.3419C50.0115 15.7972 48.8183 16.9798 47.3501 16.9798C45.8819 16.9798 44.6887 15.7972 44.6887 14.3419ZM72.5271 13.8797C72.9796 14.3061 73.0993 14.4161 73.5695 14.8205L73.5873 14.8249C73.8623 15.0667 73.9909 15.3833 73.9643 15.7702C73.9377 16.1571 73.8046 16.4781 73.5606 16.7375C73.2989 17.0144 72.9929 17.1815 72.6336 17.2475C72.2743 17.3134 71.9549 17.2255 71.6799 16.9837C71.3133 16.6635 71.3031 16.6541 70.9944 16.3691L70.9791 16.355C70.6509 16.056 70.3004 15.7306 69.9278 15.3745C69.6573 15.1195 69.0008 14.4161 68.535 13.7785C68.0649 14.4204 67.4084 15.1195 67.1423 15.3745C66.7652 15.7306 66.4148 16.056 66.091 16.355C65.7628 16.6539 65.4123 16.9661 65.0397 17.287C64.7603 17.5288 64.4454 17.6168 64.0861 17.5508C63.7268 17.4849 63.4207 17.3134 63.159 17.0408C62.9151 16.7814 62.782 16.4605 62.7554 16.0736C62.7288 15.6823 62.8574 15.3701 63.1324 15.1283C63.607 14.7238 64.0683 14.3061 64.5252 13.8797C64.9821 13.4532 65.4212 13.0267 65.8426 12.609C66.264 12.1606 66.5567 11.6726 66.7209 11.1582C66.885 10.6394 66.9648 10.0195 66.9648 9.29401V7.40787C66.9648 6.95502 67.1201 6.62528 67.4394 6.41424C67.7588 6.2032 68.1181 6.09768 68.5262 6.09768C68.9343 6.09768 69.2935 6.2032 69.6129 6.41424C69.9278 6.62528 70.0875 6.95502 70.0875 7.40787V9.29401C70.0875 10.0195 70.1674 10.6438 70.3315 11.1582C70.4956 11.6726 70.7884 12.1562 71.2097 12.609C71.6311 13.0311 72.0703 13.4532 72.5271 13.8797ZM81.8769 5.50502C81.5841 5.31157 81.2514 5.21484 80.8744 5.21484C80.4974 5.21484 80.1647 5.31157 79.8719 5.50502C79.5792 5.69847 79.4328 6.00623 79.4328 6.42391V10.3193H77.5033V6.42391C77.5033 6.00623 77.3569 5.69847 77.0642 5.50502C76.7714 5.31157 76.4387 5.21484 76.0617 5.21484C75.6847 5.21484 75.352 5.31157 75.0592 5.50502C74.7665 5.69847 74.6201 6.00623 74.6201 6.42391V16.7559C74.6201 17.1736 74.7665 17.4814 75.0592 17.6748C75.352 17.8683 75.6847 17.965 76.0617 17.965C76.4387 17.965 76.7714 17.8683 77.0642 17.6748C77.3569 17.4814 77.5033 17.1736 77.5033 16.7559V12.8605H79.4328V16.7559C79.4328 17.1736 79.5792 17.4814 79.8719 17.6748C80.1647 17.8683 80.4974 17.965 80.8744 17.965C81.2514 17.965 81.5841 17.8683 81.8769 17.6748C82.1696 17.4814 82.316 17.1736 82.316 16.7559V6.42391C82.316 6.00623 82.1696 5.69847 81.8769 5.50502ZM19.4287 22.1324C19.8101 18.9673 21.3223 17.8108 27.5702 17.8105C33.2239 17.8109 34.6075 19.108 34.1329 22.8227C33.6139 26.8983 32.0969 30.0947 27.9141 31.4576C24.0196 32.7238 20.4223 31.6071 19.7835 29.6418C19.2202 27.9007 19.0472 25.3024 19.4287 22.1324Z" fill="#08483C"/>
</svg>
