<svg width="24" height="24" viewBox="0 0 24 24" fill="none" xmlns="http://www.w3.org/2000/svg">
<path d="M19.5459 11.2957C19.4414 11.4006 19.3172 11.4838 19.1804 11.5406C19.0437 11.5974 18.8971 11.6266 18.749 11.6266C18.601 11.6266 18.4543 11.5974 18.3176 11.5406C18.1809 11.4838 18.0567 11.4006 17.9521 11.2957L13.125 6.46854V20.2498C13.125 20.5482 13.0064 20.8343 12.7955 21.0453C12.5845 21.2563 12.2983 21.3748 12 21.3748C11.7016 21.3748 11.4154 21.2563 11.2045 21.0453C10.9935 20.8343 10.875 20.5482 10.875 20.2498V6.46854L6.0459 11.2957C5.83455 11.5071 5.54791 11.6258 5.24902 11.6258C4.95014 11.6258 4.66349 11.5071 4.45215 11.2957C4.2408 11.0844 4.12207 10.7977 4.12207 10.4989C4.12207 10.2 4.2408 9.91333 4.45215 9.70198L11.2021 2.95198C11.3067 2.8471 11.4309 2.76388 11.5676 2.7071C11.7043 2.65032 11.851 2.62109 11.999 2.62109C12.1471 2.62109 12.2937 2.65032 12.4304 2.7071C12.5672 2.76388 12.6914 2.8471 12.7959 2.95198L19.5459 9.70198C19.6508 9.8065 19.734 9.93069 19.7908 10.0674C19.8476 10.2042 19.8768 10.3508 19.8768 10.4989C19.8768 10.6469 19.8476 10.7935 19.7908 10.9303C19.734 11.067 19.6508 11.1912 19.5459 11.2957Z" fill="white"/>
</svg>
