<svg width="128" height="32" viewBox="0 0 128 32" fill="none" xmlns="http://www.w3.org/2000/svg">
<path fill-rule="evenodd" clip-rule="evenodd" d="M52.6463 7.31642C53.0189 7.31642 53.2983 7.44392 53.4757 7.70332C53.6576 7.96272 53.7463 8.26609 53.7463 8.62221C53.7463 8.97834 53.6532 9.2817 53.4757 9.5411C53.2983 9.8005 53.0189 9.928 52.6463 9.928H50.3506C51.7803 10.8854 52.7217 12.5067 52.7217 14.3428C52.7217 17.2798 50.3131 19.6671 47.3501 19.6671C44.3871 19.6671 41.9785 17.2798 41.9785 14.3428C41.9785 12.5067 42.9199 10.8854 44.3496 9.928H41.9741C41.6015 9.928 41.322 9.8005 41.1446 9.5411C40.9627 9.2817 40.874 8.97834 40.874 8.62221C40.874 8.26609 40.9672 7.96272 41.1446 7.70332C41.322 7.44392 41.6015 7.31642 41.9741 7.31642H45.7488V6.51185C45.7488 6.059 45.9041 5.72925 46.2234 5.51821C46.5428 5.31157 46.9021 5.20605 47.3102 5.20605C47.7182 5.20605 48.0775 5.30718 48.3969 5.51821C48.7118 5.72925 48.8715 6.059 48.8715 6.51185V7.31642H52.6463ZM61.4915 11.7966C61.3141 11.5372 61.0346 11.4097 60.662 11.4097H58.3422V6.51185C58.3422 6.059 58.1825 5.72925 57.8676 5.51821C57.5482 5.30718 57.1978 5.20605 56.8074 5.20605C56.4171 5.20605 56.0401 5.31157 55.7207 5.51821C55.4013 5.72925 55.2461 6.059 55.2461 6.51185V18.963C55.2461 19.4159 55.4058 19.7456 55.7207 19.9567C56.0401 20.1677 56.3994 20.2688 56.8074 20.2688C57.2155 20.2688 57.5526 20.1633 57.8676 19.9567C58.1869 19.7456 58.3422 19.4159 58.3422 18.963V14.0652H60.662C61.0346 14.0652 61.3141 13.9377 61.4915 13.6783C61.6689 13.4189 61.7576 13.1067 61.7576 12.733C61.7576 12.3593 61.6689 12.0472 61.4915 11.7878V11.7966ZM58.6122 25.3868C58.4348 25.1274 58.1554 24.9999 57.7828 24.9999H47.6029C47.2303 24.9999 47.0396 24.8152 47.0396 24.4415V21.975C47.0396 21.5222 46.8799 21.1924 46.565 20.9814C46.2456 20.7703 45.8863 20.6648 45.4782 20.6648C45.0702 20.6648 44.6843 20.7703 44.3693 20.9814C44.05 21.1924 43.8947 21.5222 43.8947 21.975V25.6286C43.8947 26.3848 44.0455 26.9124 44.3472 27.2026C44.6488 27.4927 45.1899 27.6378 45.9706 27.6378H57.7872C58.1598 27.6378 58.4392 27.5103 58.6167 27.2509C58.7941 26.9915 58.8872 26.6882 58.8872 26.332C58.8872 25.9759 58.7985 25.6462 58.6167 25.3868H58.6122ZM67.4611 27.2024C67.7628 27.4926 68.3039 27.6377 69.0846 27.6377H80.2403C81.021 27.6377 81.5621 27.4926 81.8637 27.2024C82.1654 26.9122 82.3162 26.3846 82.3162 25.6284V20.8625C82.3162 20.1019 82.1654 19.5787 81.8637 19.2885C81.5621 18.9984 81.021 18.8533 80.2403 18.8533H69.0846C68.3039 18.8533 67.7628 18.9984 67.4611 19.2885C67.1595 19.5787 67.0087 20.1063 67.0087 20.8625V25.6284C67.0087 26.389 67.1595 26.9122 67.4611 27.2024ZM79.2201 24.5161C79.2201 24.8898 79.0293 25.0745 78.6567 25.0745H70.6726C70.2955 25.0745 70.1092 24.8854 70.1092 24.5161V21.9749C70.1092 21.6011 70.3 21.4165 70.6726 21.4165H78.6567C79.0338 21.4165 79.2201 21.6055 79.2201 21.9749V24.5161ZM86.2241 20.6213C85.8515 20.6213 85.572 20.4938 85.3946 20.2344C85.2172 19.975 85.124 19.6717 85.124 19.3156C85.124 18.9594 85.2127 18.6561 85.3946 18.3967C85.572 18.1373 85.8515 18.0098 86.2241 18.0098H104.681C105.053 18.0098 105.333 18.1373 105.51 18.3967C105.688 18.6561 105.781 18.9594 105.781 19.3156C105.781 19.6717 105.692 19.975 105.51 20.2344C105.333 20.4938 105.053 20.6213 104.681 20.6213H97.016V26.3325C97.016 26.7854 96.8563 27.1151 96.5414 27.3262C96.222 27.5372 95.8628 27.6383 95.4547 27.6383C95.0466 27.6383 94.6873 27.5328 94.3679 27.3262C94.0486 27.1151 93.8933 26.7854 93.8933 26.3325V20.6213H86.2285H86.2241ZM102.654 13.3887C103.013 13.3887 103.275 13.5118 103.448 13.7624C103.621 14.0086 103.705 14.3164 103.705 14.6681C103.705 15.0198 103.621 15.3232 103.448 15.5738C103.275 15.8244 103.013 15.9475 102.654 15.9475H88.2514C87.8922 15.9475 87.6305 15.8244 87.4575 15.5738C87.2845 15.3276 87.2002 15.0198 87.2002 14.6681C87.2002 14.3164 87.2845 14.013 87.4575 13.7624C87.6305 13.5162 87.8922 13.3887 88.2514 13.3887H90.3495V8.67113H88.349C87.9897 8.67113 87.728 8.54802 87.555 8.29742C87.3821 8.05121 87.2978 7.74344 87.2978 7.39172C87.2978 7.03999 87.3821 6.73662 87.555 6.48602C87.728 6.23981 87.9897 6.1123 88.349 6.1123H102.556C102.916 6.1123 103.177 6.23541 103.35 6.48602C103.523 6.73662 103.608 7.03999 103.608 7.39172C103.608 7.74344 103.523 8.04681 103.35 8.29742C103.177 8.54802 102.916 8.67113 102.556 8.67113H100.556V13.3887H102.654ZM93.3525 13.3887H97.553V8.67113H93.3525V13.3887ZM113.126 9.75709C112.754 9.75709 112.563 9.94175 112.563 10.3111V15.82C112.563 16.1893 112.749 16.3784 113.126 16.3784H124.823C125.196 16.3784 125.475 16.5059 125.652 16.7653C125.83 17.0247 125.923 17.328 125.923 17.6842C125.923 18.0403 125.834 18.3437 125.652 18.6031C125.475 18.8625 125.196 18.99 124.823 18.99H111.494C110.713 18.99 110.172 18.8449 109.87 18.5547C109.569 18.2645 109.418 17.7413 109.418 16.9807V9.15475C109.418 8.39854 109.569 7.87095 109.87 7.58077C110.172 7.2906 110.713 7.14551 111.494 7.14551H124.823C125.196 7.14551 125.475 7.27301 125.652 7.53241C125.83 7.79181 125.923 8.09517 125.923 8.4513C125.923 8.80742 125.834 9.11079 125.652 9.37019C125.475 9.62959 125.196 9.75709 124.823 9.75709H113.131H113.126ZM107.613 25.3116C107.791 25.571 108.07 25.6985 108.443 25.6985H126.9C127.272 25.6985 127.552 25.571 127.729 25.3116C127.911 25.0522 128 24.7664 128 24.3927C128 24.019 127.906 23.7068 127.729 23.4474C127.552 23.188 127.272 23.0605 126.9 23.0605H108.443C108.07 23.0605 107.791 23.188 107.613 23.4474C107.431 23.7068 107.343 24.0366 107.343 24.3927C107.343 24.7488 107.436 25.0522 107.613 25.3116ZM47.3501 11.7049C45.8819 11.7049 44.6887 12.8876 44.6887 14.3428C44.6887 15.7981 45.8819 16.9808 47.3501 16.9808C48.8183 16.9808 50.0115 15.7981 50.0115 14.3428C50.0115 12.8876 48.8183 11.7049 47.3501 11.7049ZM73.5694 14.8216C73.0992 14.4171 72.9794 14.3072 72.527 13.8807C72.0701 13.4543 71.631 13.0322 71.2096 12.6101C70.7882 12.1573 70.4954 11.6737 70.3313 11.1592C70.1672 10.6448 70.0874 10.0205 70.0874 9.29509V7.40895C70.0874 6.9561 69.9277 6.62635 69.6128 6.41532C69.2934 6.20428 68.9341 6.09876 68.526 6.09876C68.1179 6.09876 67.7586 6.20428 67.4393 6.41532C67.1199 6.62635 66.9647 6.9561 66.9647 7.40895V9.29509C66.9647 10.0205 66.8848 10.6404 66.7207 11.1592C66.5566 11.6737 66.2638 12.1617 65.8424 12.6101C65.4211 13.0278 64.9819 13.4543 64.5251 13.8807C64.0682 14.3072 63.6069 14.7249 63.1323 15.1294C62.8572 15.3712 62.7286 15.6834 62.7552 16.0746C62.7818 16.4616 62.9149 16.7825 63.1589 17.0419C63.4206 17.3145 63.7266 17.486 64.0859 17.5519C64.4452 17.6179 64.7601 17.5299 65.0396 17.2881C65.4122 16.9672 65.7626 16.655 66.0908 16.356C66.4146 16.0571 66.7651 15.7317 67.1421 15.3756C67.4082 15.1206 68.0647 14.4215 68.5349 13.7796C69.0006 14.4171 69.6571 15.1206 69.9277 15.3756C70.3003 15.7317 70.6507 16.0571 70.9789 16.356L70.9941 16.37C71.303 16.6552 71.3131 16.6645 71.6798 16.9847C71.9548 17.2266 72.2741 17.3145 72.6334 17.2485C72.9927 17.1826 73.2988 17.0155 73.5605 16.7385C73.8045 16.4791 73.9375 16.1582 73.9641 15.7713C73.9907 15.3844 73.8621 15.0678 73.5871 14.826L73.5694 14.8216ZM80.8744 5.21484C81.2514 5.21484 81.5841 5.31157 81.8769 5.50502C82.1696 5.69847 82.316 6.00623 82.316 6.42391V16.7559C82.316 17.1736 82.1696 17.4814 81.8769 17.6748C81.5841 17.8683 81.2514 17.965 80.8744 17.965C80.4974 17.965 80.1647 17.8683 79.8719 17.6748C79.5792 17.4814 79.4328 17.1736 79.4328 16.7559V12.8605H77.5033V16.7559C77.5033 17.1736 77.3569 17.4814 77.0642 17.6748C76.7714 17.8683 76.4387 17.965 76.0617 17.965C75.6847 17.965 75.352 17.8683 75.0592 17.6748C74.7665 17.4814 74.6201 17.1736 74.6201 16.7559V6.42391C74.6201 6.00623 74.7665 5.69847 75.0592 5.50502C75.352 5.31157 75.6847 5.21484 76.0617 5.21484C76.4387 5.21484 76.7714 5.31157 77.0642 5.50502C77.3569 5.69847 77.5033 6.00623 77.5033 6.42391V10.3193H79.4328V6.42391C79.4328 6.00623 79.5792 5.69847 79.8719 5.50502C80.1647 5.31157 80.4974 5.21484 80.8744 5.21484Z" fill="#4C2A00"/>
<path d="M27.5726 17.8105C21.3227 17.8105 19.8102 18.9669 19.4287 22.1324C19.0472 25.3024 19.2202 27.9007 19.7835 29.6418C20.4223 31.6071 24.0196 32.7238 27.9141 31.4576C32.0969 30.0947 33.6139 26.8983 34.1329 22.8227C34.6075 19.1075 33.2236 17.8105 27.5681 17.8105H27.5726Z" fill="#EA5506"/>
<path d="M14.2606 1.74979C11.9009 0.123048 7.26561 0.734176 4.50219 3.14791C1.73434 5.55725 0 9.80876 0 16.5312C0 23.2536 1.73434 27.1402 4.50219 29.5495C7.26561 31.9632 11.8432 32.8997 14.2606 30.9476C16.2345 29.3517 16.8067 22.5721 16.8067 16.3509C16.8067 8.45021 16.4652 3.27541 14.2606 1.75419V1.74979Z" fill="#FCC800"/>
<path d="M34.9486 0.338817C30.4598 -0.615245 24.2986 0.40037 21.2957 3.96162C18.7674 6.9601 18.7141 11.9854 19.9073 13.854C20.1912 14.298 20.6836 14.3684 20.8832 13.8408C22.1429 10.5609 25.0039 5.36853 28.9738 3.39885C29.342 3.21419 29.5504 3.47359 29.2843 3.68023C26.2459 6.03242 23.8462 10.4642 22.4977 14.9311C22.3558 15.4016 22.4756 15.6478 22.8881 15.7445C24.2631 16.0786 25.8378 16.0743 28.1177 15.4587C30.9477 14.6937 32.9304 11.8052 33.6224 8.67038C34.1414 6.31819 34.4785 4.09351 35.685 2.51074C36.4168 1.55228 36.1906 0.60701 34.9486 0.343214V0.338817Z" fill="#45B035"/>
</svg>
