<svg width="16" height="14" viewBox="0 0 16 14" fill="none" xmlns="http://www.w3.org/2000/svg">
<path d="M15.8125 6.99999C15.8125 7.24863 15.7137 7.48709 15.5379 7.6629C15.3621 7.83872 15.1236 7.93749 14.875 7.93749H3.39063L7.41563 11.9617C7.59175 12.1378 7.6907 12.3767 7.6907 12.6258C7.6907 12.8748 7.59175 13.1137 7.41563 13.2898C7.23951 13.466 7.00064 13.5649 6.75157 13.5649C6.5025 13.5649 6.26363 13.466 6.08751 13.2898L0.462507 7.66483C0.375107 7.57774 0.30576 7.47424 0.258442 7.36029C0.211125 7.24633 0.186768 7.12416 0.186768 7.00077C0.186768 6.87738 0.211125 6.75521 0.258442 6.64125C0.30576 6.5273 0.375107 6.42381 0.462507 6.33671L6.08751 0.711709C6.17471 0.624503 6.27824 0.555328 6.39218 0.508132C6.50612 0.460937 6.62824 0.436646 6.75157 0.436646C6.8749 0.436646 6.99702 0.460937 7.11096 0.508132C7.2249 0.555328 7.32843 0.624503 7.41563 0.711709C7.50284 0.798915 7.57201 0.902444 7.61921 1.01638C7.6664 1.13032 7.6907 1.25244 7.6907 1.37577C7.6907 1.4991 7.6664 1.62122 7.61921 1.73516C7.57201 1.8491 7.50284 1.95263 7.41563 2.03983L3.39063 6.06249H14.875C15.1236 6.06249 15.3621 6.16126 15.5379 6.33708C15.7137 6.51289 15.8125 6.75135 15.8125 6.99999Z" fill="white"/>
</svg>
