<svg width="40" height="40" viewBox="0 0 40 40" fill="none" xmlns="http://www.w3.org/2000/svg">
<path d="M39.0716 19.0777H22.2313L34.14 7.16714C34.3163 6.99402 34.4107 6.7611 34.4107 6.51243C34.4107 6.26377 34.3131 6.03399 34.14 5.85773C33.7781 5.49575 33.1928 5.49575 32.834 5.85773L20.9253 17.7683V0.925401C20.9253 0.415486 20.5098 0 20 0C19.4902 0 19.0747 0.415486 19.0747 0.925401V17.7683L7.16601 5.85773C6.80409 5.49575 6.21873 5.49575 5.85995 5.85773C5.50118 6.2197 5.49803 6.80516 5.85995 7.16399L17.7655 19.0777H0.925256C0.415421 19.0777 0 19.4932 0 20.0031C0 20.5131 0.415421 20.9285 0.925256 20.9285H17.7655L5.85681 32.836C5.49489 33.198 5.49489 33.7834 5.85681 34.1423C6.03304 34.3185 6.26279 34.413 6.51141 34.413C6.76003 34.413 6.98977 34.3154 7.16601 34.1423L19.0747 22.2317V39.0746C19.0747 39.5845 19.4902 40 20 40C20.5098 40 20.9253 39.5845 20.9253 39.0746V22.2317L32.834 34.1423C33.0102 34.3185 33.24 34.413 33.4886 34.413C33.7372 34.413 33.967 34.3154 34.1432 34.1423C34.5051 33.7803 34.5051 33.1948 34.1432 32.836L22.2345 20.9254H39.0747C39.5846 20.9254 40 20.5099 40 20C40 19.4901 39.5846 19.0746 39.0747 19.0746L39.0716 19.0777Z" fill="#FCC800"/>
</svg>
