<svg width="72" height="72" viewBox="0 0 72 72" fill="none" xmlns="http://www.w3.org/2000/svg">
<path fill-rule="evenodd" clip-rule="evenodd" d="M34.6915 0H37.2999V29.4462L48.5717 2.2472L50.9813 3.24581L39.7151 30.4314L60.5308 9.61566L62.3752 11.4601L41.5637 32.2716L68.7538 21.0035L69.7524 23.4132L42.5375 34.6915H72V37.2999H42.5439L69.7597 48.5731L68.7615 50.9829L41.5579 39.7148L62.3752 60.5321L60.5308 62.3765L39.7084 41.5541L50.9796 68.7653L48.5698 69.7635L37.2999 42.5555V72H34.6915V42.5534L23.4165 69.7603L21.0068 68.7617L32.2829 41.5524L11.4635 62.3717L9.61914 60.5273L30.4426 39.7039L3.23786 50.978L2.23926 48.5684L29.4303 37.2999H0V34.6915H29.4307L2.24219 23.4297L3.24037 21.0199L30.441 32.2867L9.61914 11.4648L11.4635 9.62044L32.2804 30.4373L21.0166 3.24414L23.4264 2.24596L34.6915 29.4423V0Z" fill="#45B035"/>
</svg>
