<svg width="80" height="80" viewBox="0 0 80 80" fill="none" xmlns="http://www.w3.org/2000/svg">
<path d="M78.1432 38.1555H44.4626L68.2801 14.3343C68.6326 13.988 68.8214 13.5222 68.8214 13.0249C68.8214 12.5275 68.6263 12.068 68.2801 11.7155C67.5563 10.9915 66.3855 10.9915 65.668 11.7155L41.8505 35.5367V1.8508C41.8505 0.830973 41.0197 0 40 0C38.9803 0 38.1495 0.830973 38.1495 1.8508V35.5367L14.332 11.7155C13.6082 10.9915 12.4375 10.9915 11.7199 11.7155C11.0024 12.4394 10.9961 13.6103 11.7199 14.328L35.5311 38.1555H1.85051C0.830842 38.1555 0 38.9865 0 40.0063C0 41.0261 0.830842 41.8571 1.85051 41.8571H35.5311L11.7136 65.672C10.9898 66.396 10.9898 67.5669 11.7136 68.2845C12.0661 68.6371 12.5256 68.8259 13.0228 68.8259C13.5201 68.8259 13.9795 68.6308 14.332 68.2845L38.1495 44.4633V78.1492C38.1495 79.169 38.9803 80 40 80C41.0197 80 41.8505 79.169 41.8505 78.1492V44.4633L65.668 68.2845C66.0205 68.6371 66.4799 68.8259 66.9772 68.8259C67.4744 68.8259 67.9339 68.6308 68.2864 68.2845C69.0102 67.5606 69.0102 66.3897 68.2864 65.672L44.4689 41.8508H78.1495C79.1692 41.8508 80 41.0198 80 40C80 38.9802 79.1692 38.1492 78.1495 38.1492L78.1432 38.1555Z" fill="#45B035"/>
</svg>
