<svg width="104" height="104" viewBox="0 0 104 104" fill="none" xmlns="http://www.w3.org/2000/svg">
<path fill-rule="evenodd" clip-rule="evenodd" d="M50.1105 0H53.8782V42.5308L70.1586 3.24574L73.6392 4.68817L57.3657 43.9566L87.4336 13.8886L90.0978 16.5528L60.0358 46.6148L99.3109 30.3384L100.753 33.8191L61.4417 50.1105H104V53.8782H61.4544L100.765 70.161L99.3227 73.6419L60.0275 57.3652L90.0978 87.4355L87.4336 90.0996L57.3587 60.0247L73.6383 99.3272L70.1575 100.769L53.8782 61.4673V104H50.1105V61.4635L33.8234 100.765L30.3428 99.3223L46.6302 60.0203L16.5587 90.0919L13.8945 87.4277L43.972 57.3503L4.6768 73.6349L3.23438 70.1543L42.509 53.8782H0V50.1105H42.5131L3.23926 33.8428L4.68108 30.3619L43.9698 46.6358L13.8945 16.5605L16.5587 13.8964L46.6293 43.9671L30.3584 4.68555L33.8393 3.24373L50.1105 42.526V0Z" fill="#FCC800"/>
</svg>
