<svg width="32" height="32" viewBox="0 0 32 32" fill="none" xmlns="http://www.w3.org/2000/svg">
<path d="M25.6762 18.8837C24.4774 19.6125 23.1005 19.9958 21.6975 19.9912C20.5221 19.9819 19.3601 19.7415 18.2775 19.2837C17.4431 20.4616 16.9966 21.8703 17 23.3137V27C17.0003 27.1371 16.9724 27.2727 16.9181 27.3986C16.8637 27.5245 16.7841 27.6378 16.6841 27.7316C16.5841 27.8254 16.4659 27.8976 16.3368 27.9437C16.2077 27.9899 16.0705 28.0091 15.9337 28C15.6767 27.9776 15.4376 27.8589 15.2644 27.6676C15.0913 27.4764 14.9968 27.2267 15 26.9687V25.4137L10.1725 20.5862C9.45486 20.854 8.6959 20.994 7.92999 21C6.87557 21.0026 5.84091 20.7141 4.93999 20.1662C2.21624 18.5112 0.749985 14.7025 1.03374 9.97373C1.04802 9.72908 1.15164 9.4982 1.32493 9.32492C1.49821 9.15163 1.72909 9.04801 1.97374 9.03372C6.70249 8.75497 10.5112 10.2162 12.1612 12.94C12.8095 14.0076 13.0925 15.2572 12.9675 16.5C12.9597 16.5963 12.9242 16.6882 12.8653 16.7648C12.8064 16.8413 12.7265 16.8991 12.6354 16.9313C12.5443 16.9634 12.4459 16.9685 12.3519 16.9458C12.258 16.9232 12.1727 16.8738 12.1062 16.8037L9.70624 14.2912C9.51717 14.1116 9.26542 14.0129 9.00466 14.0163C8.7439 14.0196 8.49476 14.1247 8.31036 14.3091C8.12596 14.4935 8.02088 14.7426 8.01755 15.0034C8.01421 15.2642 8.11286 15.5159 8.29248 15.705L15.0275 22.6112C15.035 22.5137 15.0437 22.4162 15.0537 22.32C15.2724 20.4659 16.0905 18.734 17.3837 17.3875L23.7075 10.705C23.8951 10.5175 24.0006 10.2632 24.0007 9.99792C24.0008 9.73267 23.8956 9.47824 23.7081 9.2906C23.5206 9.10296 23.2663 8.99748 23.0011 8.99736C22.7358 8.99724 22.4814 9.1025 22.2937 9.28998L16.1687 15.7675C16.1074 15.8324 16.0298 15.8797 15.944 15.9046C15.8583 15.9294 15.7674 15.9307 15.6809 15.9085C15.5944 15.8863 15.5154 15.8414 15.4521 15.7783C15.3889 15.7153 15.3437 15.6364 15.3212 15.55C14.7287 13.365 14.99 11.19 16.1212 9.32248C18.3537 5.63748 23.5487 3.66498 30.0187 4.04498C30.2634 4.05926 30.4943 4.16288 30.6675 4.33617C30.8408 4.50945 30.9444 4.74033 30.9587 4.98498C31.3337 11.4562 29.3612 16.6512 25.6762 18.8837Z" fill="#45B035"/>
</svg>
