<?xml version="1.0" encoding="utf-8"?>
<!-- Generator: Adobe Illustrator 16.0.0, SVG Export Plug-In . SVG Version: 6.00 Build 0)  -->
<!DOCTYPE svg PUBLIC "-//W3C//DTD SVG 1.1//EN" "http://www.w3.org/Graphics/SVG/1.1/DTD/svg11.dtd">
<svg version="1.1" xmlns="http://www.w3.org/2000/svg" xmlns:xlink="http://www.w3.org/1999/xlink" x="0px" y="0px"
	 width="185px" height="44px" viewBox="0 0 185 44" enable-background="new 0 0 185 44" xml:space="preserve">
<path fill="#FFFFFF" d="M82.239,6.973h-2.604c-5.11,0-9.252,4.142-9.252,9.249v17.904c0,5.106,4.142,9.249,9.252,9.249h2.604
	c5.109,0,9.251-4.143,9.251-9.249V16.222C91.491,11.115,87.349,6.973,82.239,6.973"/>
<path fill="#FFFFFF" d="M12.855,9.16h-2.604C5.142,9.16,1,13.303,1,18.409v15.623c0,5.106,4.142,9.248,9.251,9.248h2.604
	c5.109,0,9.251-4.142,9.251-9.248V18.409C22.107,13.303,17.965,9.16,12.855,9.16"/>
<path fill="#FFFFFF" d="M35.983,4.861h-1.28H34.7h-0.003h-1.318c-5.11,0-9.252,4.142-9.252,9.249v20.016c0,5.106,4.142,9.249,9.252,9.249h2.604
	c5.11,0,9.252-4.143,9.252-9.249V14.11C45.235,9.003,41.093,4.861,35.983,4.861"/>
<path fill="#FFFFFF" d="M59.111,0.624h-2.604c-5.11,0-9.251,4.143-9.251,9.249v24.16c0,5.105,4.142,9.248,9.251,9.248h2.604
	c5.11,0,9.252-4.143,9.252-9.248V9.873C68.363,4.767,64.221,0.624,59.111,0.624"/>
<path fill="#FFFFFF" d="M105.363,6.973h-2.604c-5.109,0-9.251,4.142-9.251,9.249v17.904c0,5.106,4.142,9.249,9.251,9.249h2.604
	c5.11,0,9.252-4.143,9.252-9.249V16.222C114.615,11.115,110.474,6.973,105.363,6.973"/>
<path fill="#FFFFFF" d="M151.619,4.88h-1.279h-0.003h-0.003h-1.317c-5.11,0-9.252,4.142-9.252,9.249v19.998c0,5.106,4.142,9.249,9.252,9.249h2.603
	c5.11,0,9.252-4.143,9.252-9.249V14.128C160.871,9.022,156.729,4.88,151.619,4.88"/>
<path fill="#FFFFFF" d="M174.748,9.186h-2.604c-5.109,0-9.252,4.142-9.252,9.249v15.691c0,5.106,4.143,9.249,9.252,9.249h2.604
	c5.109,0,9.252-4.143,9.252-9.249V18.435C184,13.328,179.857,9.186,174.748,9.186"/>
<path fill="#FFFFFF" d="M128.492,0.624h-2.604c-5.109,0-9.251,4.143-9.251,9.249v24.253c0,5.106,4.142,9.249,9.251,9.249h2.604
	c5.109,0,9.252-4.143,9.252-9.249V9.873C137.744,4.767,133.602,0.624,128.492,0.624"/>
<path fill="#000000" d="M85.599,27.188l1.336,0.005v-1.471l-2.185-0.014l-1.517,2.959l-2.647-2.574l0.332-0.19
	c0.601-0.343,1.088-0.774,1.445-1.271c0.348-0.492,0.52-1.025,0.52-1.633c0-0.807-0.29-1.461-0.886-1.999
	c-0.603-0.547-1.304-0.812-2.136-0.812c-0.881,0-1.607,0.278-2.217,0.854c-0.605,0.57-0.897,1.262-0.897,2.125
	c0,0.528,0.097,0.988,0.292,1.359c0.202,0.395,0.52,0.816,0.942,1.262l0.385,0.38l-0.313,0.195
	c-0.819,0.505-1.489,0.979-1.883,1.567c-0.325,0.487-0.587,1.262-0.541,2.022c0.054,0.904,0.269,1.693,1.046,2.366
	c0.779,0.677,1.674,1.075,2.718,1.075c0.807,0,1.514-0.167,2.103-0.496c0.594-0.334,1.144-0.844,1.633-1.521l0.206-0.361
	l2.139,2.046l1.011-1.137l-2.264-2.12L85.599,27.188z M78.643,21.969c0.362-0.33,0.775-0.473,1.229-0.473
	c0.441,0,0.926,0.153,1.211,0.473c0.276,0.306,0.469,0.677,0.469,1.118c0,0.432-0.174,0.845-0.469,1.174
	c-0.265,0.297-0.529,0.418-0.958,0.687l-0.686,0.398l-0.434-0.398c-0.272-0.324-0.416-0.478-0.596-0.756
	c-0.195-0.307-0.325-0.617-0.325-1.03C78.084,22.716,78.346,22.233,78.643,21.969 M81.046,31.418
	c-0.417,0.27-0.863,0.44-1.445,0.469c-0.74,0.037-1.445-0.209-1.878-0.617c-0.441-0.408-0.615-0.993-0.615-1.587
	c0-0.588,0.322-1.075,0.668-1.446c0.317-0.344,0.846-0.649,1.419-0.938l0.281-0.111l2.867,2.834
	C82.343,30.021,81.714,30.982,81.046,31.418"/>
<path fill="#000000" d="M79.393,33.861c-1.099,0-2.116-0.4-3.025-1.19c-0.972-0.842-1.155-1.833-1.206-2.691
	c-0.057-0.934,0.282-1.806,0.618-2.31c0.4-0.598,1.025-1.075,1.837-1.587c-0.451-0.48-0.782-0.93-0.995-1.346
	c-0.227-0.432-0.343-0.962-0.343-1.571c0-0.996,0.341-1.802,1.044-2.464c0.7-0.66,1.53-0.981,2.538-0.981
	c0.957,0,1.759,0.305,2.45,0.933c0.689,0.622,1.039,1.412,1.039,2.345c0,0.704-0.198,1.326-0.605,1.902
	c-0.361,0.501-0.828,0.932-1.392,1.285l1.752,1.705l1.359-2.652l2.937,0.019v2.403l-1.522-0.006l-1.08,2.051l2.336,2.188
	L85.5,33.732l-2.069-1.979c-0.508,0.679-1.082,1.2-1.707,1.552C81.064,33.675,80.279,33.861,79.393,33.861z M79.861,20.655
	c-0.769,0-1.372,0.231-1.896,0.727c-0.512,0.482-0.751,1.049-0.751,1.784c0,0.456,0.08,0.841,0.239,1.142
	c0.18,0.352,0.47,0.739,0.867,1.158l0.795,0.785l-0.815,0.508c-0.803,0.495-1.405,0.928-1.742,1.431
	c-0.24,0.36-0.505,1.03-0.462,1.734c0.056,0.954,0.313,1.545,0.885,2.041c0.745,0.647,1.534,0.962,2.413,0.962
	c0.726,0,1.356-0.147,1.875-0.437c0.53-0.299,1.024-0.759,1.468-1.367l0.49-0.86l2.221,2.125l0.387-0.435l-2.191-2.052l1.676-3.183
	l1.15,0.005v-0.537l-1.433-0.01l-1.674,3.267l-3.544-3.447l0.87-0.499c0.54-0.308,0.976-0.69,1.298-1.139
	c0.289-0.409,0.431-0.855,0.431-1.359c0-0.676-0.232-1.202-0.732-1.652C81.171,20.881,80.575,20.655,79.861,20.655z M79.455,32.357
	c-0.788,0-1.555-0.279-2.053-0.747c-0.498-0.461-0.762-1.129-0.762-1.928c0-0.606,0.267-1.2,0.793-1.765
	c0.392-0.423,1.004-0.762,1.552-1.037l0.037-0.017l0.564-0.224l3.356,3.317l-0.209,0.319c-0.028,0.043-0.691,1.048-1.432,1.532
	c-0.531,0.342-1.063,0.515-1.678,0.544C79.567,32.356,79.511,32.357,79.455,32.357z M79.366,27.736
	c-0.438,0.221-0.963,0.51-1.248,0.817c-0.366,0.393-0.543,0.762-0.543,1.129c0,0.371,0.081,0.888,0.465,1.244
	c0.355,0.335,0.937,0.521,1.538,0.493c0.451-0.021,0.825-0.144,1.215-0.395c0.339-0.222,0.7-0.64,0.938-0.951L79.366,27.736z
	 M79.376,25.923l-0.729-0.676l-0.146-0.172c-0.188-0.222-0.323-0.381-0.484-0.63c-0.188-0.294-0.4-0.703-0.4-1.284
	c0-0.625,0.359-1.224,0.715-1.541c0.43-0.391,0.949-0.591,1.54-0.591c0.625,0,1.208,0.235,1.56,0.629
	c0.389,0.432,0.587,0.913,0.587,1.429c0,0.534-0.209,1.062-0.588,1.485c-0.253,0.284-0.509,0.438-0.806,0.617
	c-0.077,0.047-0.161,0.097-0.251,0.154L79.376,25.923z M79.343,24.623l0.159,0.146l0.388-0.227c0.083-0.052,0.171-0.105,0.253-0.154
	c0.269-0.162,0.431-0.26,0.591-0.438c0.226-0.253,0.35-0.559,0.35-0.863c0-0.281-0.114-0.545-0.348-0.805
	c-0.173-0.194-0.511-0.319-0.864-0.319c-0.36,0-0.651,0.112-0.914,0.352c-0.199,0.177-0.406,0.531-0.406,0.846
	c0,0.272,0.073,0.498,0.251,0.779c0.126,0.194,0.234,0.32,0.411,0.53L79.343,24.623z"/>
<path fill="#000000" d="M5.954,19.319h6.386c1.714,0,3.063,0.491,3.921,1.329c0.62,0.646,0.964,1.437,0.964,2.398v0.046
	c0,1.95-1.199,2.957-2.378,3.469c1.778,0.538,3.213,1.566,3.213,3.624v0.042c0,2.574-2.164,4.094-5.441,4.094H5.954V19.319z
	 M15.512,23.283c0-1.478-1.179-2.44-3.322-2.44H7.626v5.165h4.435c2.034,0,3.451-0.926,3.451-2.683V23.283z M12.361,27.507H7.626
	v5.294h5.035c2.271,0,3.686-1.009,3.686-2.679v-0.046C16.347,28.447,14.977,27.507,12.361,27.507"/>
<path fill="#000000" d="M12.62,34.787H5.487V18.852h6.854c1.799,0,3.268,0.505,4.248,1.461c0.737,0.767,1.105,1.683,1.105,2.733
	v0.046c0,1.7-0.813,2.747-1.731,3.386c1.704,0.771,2.566,2.015,2.566,3.707v0.042C18.528,32.997,16.209,34.787,12.62,34.787z
	 M6.421,33.853h6.198c3.068,0,4.974-1.39,4.974-3.626v-0.042c0-1.551-0.942-2.59-2.881-3.177l-1.22-0.368l1.169-0.508
	c1.391-0.604,2.097-1.626,2.097-3.04v-0.046c0-0.812-0.273-1.49-0.834-2.075c-0.779-0.76-2.056-1.185-3.584-1.185H6.421V33.853z
	 M12.661,33.268H7.159v-6.229h5.203c4.019,0,4.453,2.124,4.453,3.037v0.046C16.814,32.063,15.223,33.268,12.661,33.268z
	 M8.094,32.333h4.567c2.015,0,3.218-0.826,3.218-2.211v-0.046c0-1.737-1.913-2.102-3.518-2.102H8.094V32.333z M12.062,26.476H7.159
	v-6.1h5.032c2.337,0,3.789,1.114,3.789,2.907v0.042C15.979,25.269,14.478,26.476,12.062,26.476z M8.094,25.54h3.968
	c0.897,0,2.983-0.216,2.983-2.215v-0.042c0-1.253-1.041-1.972-2.854-1.972H8.094V25.54z"/>
<path fill="#000000" d="M29.044,19.339h6.437c1.839,0,3.315,0.557,4.257,1.496c0.728,0.728,1.155,1.775,1.155,2.952v0.046
	c0,2.477-1.71,3.932-4.063,4.36l4.597,6.119h-2.074l-4.342-5.82h-4.277v5.82h-1.69V19.339z M35.332,26.976
	c2.247,0,3.852-1.156,3.852-3.081v-0.041c0-1.842-1.412-2.951-3.829-2.951h-4.621v6.073H35.332z"/>
<path fill="#000000" d="M42.363,34.78h-3.244l-4.342-5.82h-3.575v5.82h-2.625V18.871h6.904c1.902,0,3.531,0.58,4.587,1.633
	c0.834,0.834,1.293,2,1.293,3.283v0.046c0,2.286-1.378,3.984-3.727,4.653L42.363,34.78z M39.588,33.845h0.904l-4.49-5.976
	l0.745-0.136c2.339-0.426,3.68-1.848,3.68-3.9v-0.046c0-1.034-0.362-1.964-1.019-2.622c-0.879-0.876-2.273-1.359-3.927-1.359h-5.97
	v14.039h0.756v-5.819h4.979L39.588,33.845z M35.332,27.442h-5.064v-7.008h5.088c2.65,0,4.296,1.31,4.296,3.419v0.041
	C39.651,26.017,37.915,27.442,35.332,27.442z M31.202,26.508h4.13c2.056,0,3.385-1.025,3.385-2.613v-0.041
	c0-1.579-1.225-2.484-3.361-2.484h-4.153V26.508z"/>
<path fill="#000000" d="M50.139,26.672V26.63c0-4.146,3.117-7.778,7.691-7.778c4.578,0,7.649,3.584,7.649,7.736v0.042
	c0,4.147-3.114,7.778-7.691,7.778S50.139,30.819,50.139,26.672 M63.719,26.672V26.63c0-3.416-2.494-6.211-5.931-6.211
	s-5.889,2.749-5.889,6.169v0.042c0,3.416,2.494,6.207,5.931,6.207C61.27,32.837,63.719,30.088,63.719,26.672"/>
<path fill="#000000" d="M57.788,34.876c-4.627,0-8.117-3.527-8.117-8.204V26.63c0-4.623,3.584-8.245,8.159-8.245
	c4.627,0,8.117,3.527,8.117,8.203v0.042C65.947,31.254,62.363,34.876,57.788,34.876z M57.83,19.32c-4.051,0-7.224,3.211-7.224,7.31
	v0.042c0,4.145,3.087,7.27,7.182,7.27c4.051,0,7.224-3.212,7.224-7.312v-0.042C65.012,22.444,61.924,19.32,57.83,19.32z
	 M57.83,33.305c-3.587,0-6.398-2.932-6.398-6.675v-0.042c0-3.783,2.732-6.637,6.356-6.637c3.588,0,6.398,2.934,6.398,6.679v0.042
	C64.186,30.453,61.454,33.305,57.83,33.305z M57.788,20.886c-3.091,0-5.421,2.451-5.421,5.702v0.042
	c0,3.272,2.349,5.739,5.463,5.739c3.091,0,5.421-2.449,5.421-5.697V26.63C63.251,23.355,60.903,20.886,57.788,20.886z"/>
<polygon fill="#000000" points="102.723,21.515 97.646,21.515 97.646,19.939 109.526,19.939 109.526,21.515 104.449,21.515 
	104.449,34.843 102.723,34.843 "/>
<path fill="#000000" d="M104.916,35.31h-2.661V21.982h-5.077v-2.511h12.815v2.511h-5.077V35.31z M103.189,34.375h0.792V21.048h5.077
	v-0.642H98.112v0.642h5.077V34.375z"/>
<path fill="#000000" d="M144.648,18.739h6.111c3.685,0,6.113,1.955,6.113,5.18v0.044c0,3.521-2.94,5.345-6.415,5.345h-3.967v5.535
	h-1.843V18.739z M150.526,27.626c2.708,0,4.479-1.445,4.479-3.592v-0.049c0-2.333-1.75-3.543-4.386-3.543h-4.129v7.184H150.526z"/>
<path fill="#000000" d="M146.959,35.311h-2.778V18.272h6.579c3.997,0,6.581,2.216,6.581,5.647v0.044
	c0,3.477-2.767,5.812-6.883,5.812h-3.499V35.311z M145.115,34.376h0.908V28.84h4.435c2.743,0,5.947-1.277,5.947-4.877v-0.044
	c0-2.907-2.163-4.712-5.646-4.712h-5.645V34.376z M150.526,28.094h-4.503v-8.119h4.597c3.039,0,4.854,1.499,4.854,4.011v0.049
	C155.474,26.462,153.485,28.094,150.526,28.094z M146.959,27.158h3.567c2.438,0,4.012-1.226,4.012-3.124v-0.049
	c0-2.776-2.74-3.076-3.918-3.076h-3.661V27.158z"/>
<path fill="#000000" d="M167.762,32.308l1.027-1.216c1.533,1.384,3.003,2.08,5.042,2.08c1.972,0,3.274-1.052,3.274-2.5v-0.04
	c0-1.369-0.734-2.145-3.823-2.792c-3.378-0.736-4.933-1.829-4.933-4.24v-0.046c0-2.307,2.036-4.007,4.829-4.007
	c2.143,0,3.675,0.608,5.165,1.804l-0.964,1.28c-1.367-1.112-2.731-1.597-4.243-1.597c-1.91,0-3.129,1.053-3.129,2.373v0.044
	c0,1.384,0.757,2.16,3.991,2.853c3.274,0.716,4.784,1.912,4.784,4.161v0.04c0,2.521-2.098,4.156-5.017,4.156
	C171.437,34.66,169.526,33.884,167.762,32.308"/>
<path fill="#000000" d="M173.767,35.128c-2.422,0-4.429-0.786-6.316-2.472l-0.339-0.304l1.633-1.932l0.358,0.324
	c1.542,1.392,2.912,1.96,4.729,1.96c1.679,0,2.807-0.817,2.807-2.033v-0.04c0-0.913-0.254-1.665-3.451-2.335
	c-3.186-0.694-5.304-1.759-5.304-4.697v-0.046c0-2.593,2.227-4.475,5.296-4.475c2.16,0,3.792,0.57,5.457,1.907l0.354,0.284
	l-1.528,2.03l-0.376-0.307c-1.251-1.018-2.505-1.492-3.948-1.492c-1.567,0-2.661,0.783-2.661,1.905v0.044
	c0,0.918,0.267,1.678,3.621,2.396c2.4,0.525,5.154,1.524,5.154,4.618v0.04C179.251,33.227,176.995,35.128,173.767,35.128z
	 M168.418,32.255c1.605,1.32,3.316,1.938,5.349,1.938c2.722,0,4.55-1.483,4.55-3.689v-0.04c0-1.945-1.28-3.019-4.417-3.705
	c-3.218-0.688-4.359-1.554-4.359-3.309v-0.044c0-1.646,1.513-2.84,3.597-2.84c1.521,0,2.852,0.448,4.154,1.405l0.4-0.532
	c-1.364-0.995-2.739-1.425-4.513-1.425c-2.527,0-4.361,1.489-4.361,3.54V23.6c0,2.059,1.194,3.049,4.564,3.783
	c3.093,0.648,4.19,1.499,4.19,3.249v0.04c0,1.747-1.538,2.968-3.741,2.968c-1.898,0-3.415-0.567-4.99-1.885L168.418,32.255z"/>
<rect x="126.283" y="19.029" fill="#000000" width="1.816" height="9.924"/>
<path fill="#000000" d="M128.567,29.421h-2.751V18.562h2.751V29.421z M126.751,28.485h0.881v-8.989h-0.881V28.485z"/>
<rect x="126.283" y="32.036" fill="#000000" width="1.816" height="2.605"/>
<path fill="#000000" d="M128.567,35.108h-2.751v-3.539h2.751V35.108z M126.751,34.174h0.881v-1.67h-0.881V34.174z"/>
</svg>
