<?xml version="1.0" encoding="utf-8"?>
<!-- Generator: Adobe Illustrator 16.0.0, SVG Export Plug-In . SVG Version: 6.00 Build 0)  -->
<!DOCTYPE svg PUBLIC "-//W3C//DTD SVG 1.1//EN" "http://www.w3.org/Graphics/SVG/1.1/DTD/svg11.dtd">
<svg version="1.1" id="Layer_1" xmlns="http://www.w3.org/2000/svg" xmlns:xlink="http://www.w3.org/1999/xlink" x="0px" y="0px"
	 width="32.655px" height="50.762px" viewBox="0 0 32.655 50.762" enable-background="new 0 0 32.655 50.762" xml:space="preserve">
<g>
	<path fill="none" stroke="#000000" stroke-width="3" stroke-linecap="round" stroke-linejoin="round" stroke-miterlimit="10" d="
		M10.836,12.994V4.521c0-1.441-1.169-2.61-2.611-2.61H7.416c-1.441,0-2.611,1.169-2.611,2.61v8.473c0,1.441,1.17,2.61,2.611,2.61
		h0.809C9.667,15.604,10.836,14.436,10.836,12.994z"/>
	<path fill="none" stroke="#000000" stroke-width="3" stroke-linecap="round" stroke-linejoin="round" stroke-miterlimit="10" d="
		M26.228,31.73l3.059-5.145c0.53-0.892,0.811-1.912,0.811-2.95v-7.033l-0.77-5.48l-12.734,0.848l-9.055,5.66l-1.415,2.547"/>
	<path fill="none" stroke="#000000" stroke-width="3" stroke-linecap="round" stroke-linejoin="round" stroke-miterlimit="10" d="
		M18.391,12.583V4.111c0-1.441-1.169-2.611-2.611-2.611h-0.809c-1.441,0-2.61,1.17-2.61,2.611v8.472c0,1.442,1.169,2.611,2.61,2.611
		h0.809C17.222,15.194,18.391,14.025,18.391,12.583z"/>
	<path fill="#FFFFFF" d="M24.923,12.994V4.521c0-1.441-1.169-2.61-2.61-2.61h-0.809c-1.442,0-2.611,1.169-2.611,2.61v8.473
		c0,1.441,1.169,2.61,2.611,2.61h0.809C23.754,15.604,24.923,14.436,24.923,12.994"/>
	<path fill="#FFFFFF" d="M31.155,12.994V6.021c0-1.442-1.17-2.611-2.611-2.611h-0.809c-1.442,0-2.611,1.169-2.611,2.611v6.973
		c0,1.441,1.169,2.61,2.611,2.61h0.809C29.985,15.604,31.155,14.436,31.155,12.994"/>
	<path fill="none" stroke="#000000" stroke-width="3" stroke-linecap="round" stroke-linejoin="round" stroke-miterlimit="10" d="
		M10.836,4.521v8.473c0,1.441-1.169,2.61-2.611,2.61H7.416c-1.441,0-2.611-1.169-2.611-2.61V4.521c0-1.441,1.17-2.61,2.611-2.61
		h0.809C9.667,1.911,10.836,3.081,10.836,4.521z M15.78,1.5h-0.809c-1.441,0-2.61,1.17-2.61,2.611v8.472
		c0,1.442,1.169,2.611,2.61,2.611h0.809c1.442,0,2.611-1.169,2.611-2.611V4.111C18.391,2.67,17.222,1.5,15.78,1.5z M22.313,1.911
		h-0.809c-1.442,0-2.611,1.169-2.611,2.61v8.473c0,1.441,1.169,2.61,2.611,2.61h0.809c1.441,0,2.61-1.169,2.61-2.61V4.521
		C24.923,3.081,23.754,1.911,22.313,1.911z M28.544,3.41h-0.809c-1.442,0-2.611,1.169-2.611,2.611v6.973
		c0,1.441,1.169,2.61,2.611,2.61h0.809c1.441,0,2.611-1.169,2.611-2.61V6.021C31.155,4.579,29.985,3.41,28.544,3.41z"/>
	<path fill="#FFFFFF" d="M26.052,32.258l1.055,16.711l-18,0.293c0,0,0.41-14.541,0.586-15.421l-0.694-0.396
		c-3.447-1.971-5.796-5.418-6.365-9.349l-1.003-6.919c-0.491-1.738,0.441-3.562,2.137-4.183l11.3-4.132l1.29,4.357
		c0.502,1.691-0.429,3.475-2.102,4.032l-4.388,1.463l1.76,2.815"/>
	<path fill="none" stroke="#000000" stroke-width="3" stroke-linecap="round" stroke-linejoin="round" stroke-miterlimit="10" d="
		M26.052,32.258l1.055,16.711l-18,0.293c0,0,0.41-14.541,0.586-15.421l-0.694-0.396c-3.447-1.971-5.796-5.418-6.365-9.349
		l-1.003-6.919c-0.491-1.738,0.441-3.562,2.137-4.183l11.3-4.132l1.29,4.357c0.502,1.691-0.429,3.475-2.102,4.032l-4.388,1.463
		l1.76,2.815"/>
	
		<line fill="none" stroke="#000000" stroke-width="3" stroke-linecap="round" stroke-linejoin="round" stroke-miterlimit="10" x1="18.487" y1="20.297" x2="20.774" y2="23.463"/>
	<path id="ì " d="M20.838,29.459c0.381,0,0.689,0.31,0.689,0.689c0,0.381-0.309,0.69-0.689,0.69s-0.688-0.31-0.688-0.69
		C20.149,29.769,20.457,29.459,20.838,29.459 M24.074,29.459c-0.381,0-0.689,0.31-0.689,0.689c0,0.381,0.309,0.69,0.689,0.69
		c0.382,0,0.69-0.31,0.69-0.69C24.765,29.769,24.456,29.459,24.074,29.459 M19.034,32.01c-0.381,0-0.689,0.31-0.689,0.689
		c0,0.381,0.309,0.689,0.689,0.689s0.689-0.309,0.689-0.689C19.724,32.319,19.415,32.01,19.034,32.01 M22.323,32.01
		c-0.381,0-0.689,0.31-0.689,0.689c0,0.381,0.309,0.689,0.689,0.689c0.382,0,0.69-0.309,0.69-0.689
		C23.014,32.319,22.705,32.01,22.323,32.01 M25.083,26.452c-0.381,0-0.69,0.309-0.69,0.689c0,0.381,0.31,0.691,0.69,0.691
		s0.689-0.31,0.689-0.691C25.772,26.761,25.464,26.452,25.083,26.452 M26.922,23.48c-0.381,0-0.688,0.309-0.688,0.69
		c0,0.381,0.308,0.69,0.688,0.69s0.69-0.309,0.69-0.69C27.612,23.79,27.303,23.48,26.922,23.48 M26.939,19.802
		c-0.381,0-0.689,0.309-0.689,0.689c0,0.382,0.309,0.691,0.689,0.691c0.382,0,0.69-0.309,0.69-0.691
		C27.63,20.111,27.321,19.802,26.939,19.802 M28.337,17.68c-0.381,0-0.689,0.309-0.689,0.689c0,0.381,0.309,0.69,0.689,0.69
		s0.69-0.309,0.69-0.69C29.027,17.989,28.718,17.68,28.337,17.68 M24.517,18.387c-0.381,0-0.688,0.309-0.688,0.69
		c0,0.381,0.308,0.69,0.688,0.69s0.69-0.309,0.69-0.69C25.207,18.696,24.897,18.387,24.517,18.387 M24.658,22.915
		c-0.381,0-0.688,0.309-0.688,0.689c0,0.381,0.308,0.69,0.688,0.69s0.689-0.309,0.689-0.69
		C25.348,23.224,25.039,22.915,24.658,22.915 M20.838,34.609c-0.381,0-0.688,0.31-0.688,0.689c0,0.382,0.308,0.69,0.688,0.69
		s0.689-0.309,0.689-0.69C21.527,34.919,21.219,34.609,20.838,34.609 M24.074,34.609c-0.381,0-0.689,0.31-0.689,0.689
		c0,0.382,0.309,0.69,0.689,0.69c0.382,0,0.69-0.309,0.69-0.69C24.765,34.919,24.456,34.609,24.074,34.609 M19.034,37.152
		c-0.381,0-0.689,0.311-0.689,0.69c0,0.381,0.309,0.689,0.689,0.689s0.689-0.309,0.689-0.689
		C19.724,37.463,19.415,37.152,19.034,37.152 M22.323,37.152c-0.381,0-0.689,0.311-0.689,0.69c0,0.381,0.309,0.689,0.689,0.689
		c0.382,0,0.69-0.309,0.69-0.689C23.014,37.463,22.705,37.152,22.323,37.152 M17.602,39.753c-0.381,0-0.69,0.31-0.69,0.689
		c0,0.381,0.31,0.689,0.69,0.689s0.689-0.309,0.689-0.689C18.291,40.063,17.982,39.753,17.602,39.753 M20.838,39.753
		c-0.381,0-0.688,0.31-0.688,0.689c0,0.381,0.308,0.689,0.688,0.689s0.689-0.309,0.689-0.689
		C21.527,40.063,21.219,39.753,20.838,39.753 M24.074,39.753c-0.381,0-0.689,0.31-0.689,0.689c0,0.381,0.309,0.689,0.689,0.689
		c0.382,0,0.69-0.309,0.69-0.689C24.765,40.063,24.456,39.753,24.074,39.753 M19.034,42.304c-0.381,0-0.689,0.31-0.689,0.689
		c0,0.381,0.309,0.689,0.689,0.689s0.689-0.309,0.689-0.689C19.724,42.613,19.415,42.304,19.034,42.304 M22.323,42.304
		c-0.381,0-0.689,0.31-0.689,0.689c0,0.381,0.309,0.689,0.689,0.689c0.382,0,0.69-0.309,0.69-0.689
		C23.014,42.613,22.705,42.304,22.323,42.304 M17.602,44.903c-0.381,0-0.69,0.31-0.69,0.689c0,0.381,0.31,0.69,0.69,0.69
		s0.689-0.31,0.689-0.69C18.291,45.213,17.982,44.903,17.602,44.903 M20.838,44.903c-0.381,0-0.688,0.31-0.688,0.689
		c0,0.381,0.308,0.69,0.688,0.69s0.689-0.31,0.689-0.69C21.527,45.213,21.219,44.903,20.838,44.903 M24.074,44.903
		c-0.381,0-0.689,0.31-0.689,0.689c0,0.381,0.309,0.69,0.689,0.69c0.382,0,0.69-0.31,0.69-0.69
		C24.765,45.213,24.456,44.903,24.074,44.903"/>
</g>
</svg>
