<?xml version="1.0" encoding="utf-8"?>
<!-- Generator: Adobe Illustrator 16.0.0, SVG Export Plug-In . SVG Version: 6.00 Build 0)  -->
<!DOCTYPE svg PUBLIC "-//W3C//DTD SVG 1.1//EN" "http://www.w3.org/Graphics/SVG/1.1/DTD/svg11.dtd">
<svg version="1.1" id="Layer_1" xmlns="http://www.w3.org/2000/svg" xmlns:xlink="http://www.w3.org/1999/xlink" x="0px" y="0px"
	 width="250px" height="75px" viewBox="0 0 250 75" enable-background="new 0 0 250 75" xml:space="preserve">
<g>
	<path fill-rule="evenodd" clip-rule="evenodd" fill="#FFFFFF" d="M1,74V53.899C7.609,51.41,12,45.11,12,38S7.609,24.589,1,22.101V1
		h248v21.514c-6.098,2.752-10,8.758-10,15.485c0,6.728,3.903,12.734,10,15.486V74H1z"/>
	<path d="M248,2v19.881c-6.118,3.027-10,9.213-10,16.119c0,6.905,3.882,13.092,10,16.12V73H2V54.577C8.636,51.783,13,45.295,13,38
		c0-7.295-4.363-13.783-11-16.577V2H248 M250,0H0v22.808C6.385,24.909,11,30.911,11,38S6.385,51.091,0,53.192V75h250V52.826
		c-5.861-2.375-10-8.113-10-14.827c0-6.712,4.139-12.451,10-14.826V0L250,0z"/>
</g>
</svg>