<?xml version="1.0" encoding="utf-8"?>
<!-- Generator: Adobe Illustrator 16.0.0, SVG Export Plug-In . SVG Version: 6.00 Build 0)  -->
<!DOCTYPE svg PUBLIC "-//W3C//DTD SVG 1.1//EN" "http://www.w3.org/Graphics/SVG/1.1/DTD/svg11.dtd">
<svg version="1.1" id="Layer_1" xmlns="http://www.w3.org/2000/svg" xmlns:xlink="http://www.w3.org/1999/xlink" x="0px" y="0px"
	 width="250px" height="75px" viewBox="0 0 250 75" enable-background="new 0 0 250 75" xml:space="preserve">
<g>
	<path fill-rule="evenodd" clip-rule="evenodd" d="M0.5,74.5V53.55c6.595-2.33,11-8.533,11-15.55c0-7.017-4.405-13.22-11-15.549V0.5
		h249v22.34c-6.086,2.609-10,8.522-10,15.159s3.914,12.551,10,15.16V74.5H0.5z"/>
	<path d="M249,1v21.514c-6.098,2.752-10,8.758-10,15.485c0,6.728,3.903,12.734,10,15.486V74H1V53.899C7.609,51.41,12,45.11,12,38
		S7.609,24.589,1,22.101V1H249 M250,0H0v22.808C6.385,24.909,11,30.911,11,38S6.385,51.091,0,53.192V75h250V52.826
		c-5.861-2.375-10-8.113-10-14.827c0-6.712,4.139-12.451,10-14.826V0L250,0z"/>
</g>
</svg>
