<?xml version="1.0" encoding="utf-8"?>
<!-- Generator: Adobe Illustrator 27.3.1, SVG Export Plug-In . SVG Version: 6.00 Build 0)  -->
<svg version="1.1" id="Layer_1" xmlns="http://www.w3.org/2000/svg" xmlns:xlink="http://www.w3.org/1999/xlink" x="0px" y="0px"
	 viewBox="0 0 265.1 300" style="enable-background:new 0 0 265.1 300;" xml:space="preserve">
<style type="text/css">
	.st0{opacity:5.000000e-02;fill:#231F20;}
</style>
<path class="st0" d="M132.6,281.2l-114.5-66v-72.8l114.5-66.5l79.6,46.2l-30.7,17.6l-44.8-24.8c-2.6-1.5-5.8-1.4-8.4,0.1l-96.1,55.8
	c-2.5,1.5-4.1,4.2-4.1,7.1l0,0c0,2.9,1.6,5.7,4.1,7.1l96.1,55.9c1.3,0.7,2.7,1.2,4.2,1.2c1.5,0,2.9-0.4,4.2-1.2l110.3-64.1v39
	L132.6,281.2z M100.3,150.4l32.5-18.9l32.2,17.8l-32.5,18.9L100.3,150.4z M132.6,18.8l114.5,66v72.8L132.6,224L53,177.8l30.7-17.7
	l44.8,24.8c2.5,1.5,5.8,1.4,8.3-0.1l96.1-55.8c2.5-1.5,4.1-4.2,4.1-7.1l0,0l0,0c0-2.9-1.6-5.7-4.1-7.1l-96.1-55.9
	c-2.6-1.5-5.8-1.5-8.4,0L18.1,123V84.1L132.6,18.8z M259.5,73L136.7,2.1c-2.6-1.5-5.8-1.5-8.3,0L5.6,72.1c-2.6,1.5-4.2,4.2-4.2,7.2
	v58.2l0,0v82.3c0,2.9,1.6,5.7,4.2,7.1l122.8,70.9c1.3,0.7,2.7,1.2,4.2,1.2s2.8-0.4,4.2-1l122.8-70.1c2.6-1.5,4.2-4.2,4.2-7.1v-58.3
	l0,0V80.1C263.7,77.2,262.1,74.4,259.5,73"/>
</svg>
