<?xml version="1.0" encoding="utf-8"?>
<!-- Generator: Adobe Illustrator 25.0.1, SVG Export Plug-In . SVG Version: 6.00 Build 0)  -->
<svg version="1.1" id="Layer_1" xmlns="http://www.w3.org/2000/svg" xmlns:xlink="http://www.w3.org/1999/xlink" x="0px" y="0px" width="20px" height="20px"
	 viewBox="0 0 20 20" style="enable-background:new 0 0 20 20;" xml:space="preserve">
<style type="text/css">
	.st0{fill:#FFFFFF;}
</style>
<g transform="translate(-1606 -718) translate(120 688) translate(1432 24) translate(48)">
	<g>
		<g>
			<path class="st0" d="M25.4,26h-2.1v-6.1H8.8V26H6.7v-8.2h18.7V26z M16,16.6c-2.9,0-5.3-2.4-5.3-5.3S13.1,6,16,6s5.3,2.4,5.3,5.3
				l0,0C21.3,14.2,18.9,16.6,16,16.6z M16,8.2c-1.7,0-3.1,1.4-3.1,3.1s1.4,3.1,3.1,3.1c1.7,0,3.1-1.4,3.1-3.1
				C19.1,9.6,17.7,8.2,16,8.2z"/>
		</g>
	</g>
</g>
</svg>
