<?xml version="1.0" encoding="utf-8"?>
<!-- Generator: Adobe Illustrator 25.0.1, SVG Export Plug-In . SVG Version: 6.00 Build 0)  -->
<svg version="1.1" id="Layer_1" xmlns="http://www.w3.org/2000/svg" xmlns:xlink="http://www.w3.org/1999/xlink" x="0px" y="0px" width="20px" height="20px"
	 viewBox="0 0 20 20" style="enable-background:new 0 0 20 20;" xml:space="preserve">
<style type="text/css">
	.st0{fill:#FFFFFF;}
</style>
<g>
	<g>
		<g transform="translate(-1654 -718) translate(120 688) translate(1432 24) translate(96)">
			<g>
				<g>
					<path class="st0" d="M24.3,26l-5.6-5.6c-1.3,1-2.9,1.5-4.7,1.5c-4.4,0-8-3.6-8-8c0-4.4,3.6-8,8-8s8,3.6,8,8h0
						c0,1.8-0.6,3.4-1.6,4.8l5.6,5.6L24.3,26z M14,8.4c-3.1,0-5.6,2.5-5.6,5.6c0,3.1,2.5,5.6,5.6,5.6s5.6-2.5,5.6-5.6
						C19.5,10.9,17.1,8.4,14,8.4z"/>
				</g>
			</g>
		</g>
	</g>
</g>
</svg>
