<?xml version="1.0" encoding="utf-8"?>
<!-- Generator: Adobe Illustrator 25.0.1, SVG Export Plug-In . SVG Version: 6.00 Build 0)  -->
<svg version="1.1" id="Layer_1" xmlns="http://www.w3.org/2000/svg" xmlns:xlink="http://www.w3.org/1999/xlink" x="0px" y="0px" width="20px" height="20px"
	 viewBox="0 0 20 20" style="enable-background:new 0 0 20 20;" xml:space="preserve">
<style type="text/css">
	.st0{filter:url(#Adobe_OpacityMaskFilter);}
	.st1{fill-rule:evenodd;clip-rule:evenodd;fill:#FFFFFF;}
	.st2{mask:url(#l2c9bja67c_1_);fill-rule:evenodd;clip-rule:evenodd;fill:#FFFFFF;}
</style>
<g>
	<g>
		<g>
			<g transform="translate(6 6) translate(1.667 1.667)">
				<defs>
					<filter id="Adobe_OpacityMaskFilter" filterUnits="userSpaceOnUse" x="-7.7" y="-7.7" width="20" height="20">
						<feColorMatrix  type="matrix" values="1 0 0 0 0  0 1 0 0 0  0 0 1 0 0  0 0 0 1 0"/>
					</filter>
				</defs>
				<mask maskUnits="userSpaceOnUse" x="-7.7" y="-7.7" width="20" height="20" id="l2c9bja67c_1_">
					<g class="st0">
						<path id="_x32_wuhqn1slb_1_" class="st1" d="M-7.7-7.7h20v20h-20V-7.7z"/>
					</g>
				</mask>
				<path class="st2" d="M10.3-5.7v2c0,1.1-0.9,2-2,2s-2-0.9-2-2v-2L10.3-5.7L10.3-5.7z M6.3,10.3v-4c0-2.2-1.8-4-4-4
					c-2.2,0-4,1.8-4,4v4h-4V-0.2c1.6,1,3.8,0.6,5-0.8c1.4,1.7,3.9,1.9,5.6,0.4c0.2-0.1,0.3-0.3,0.4-0.4c1.2,1.5,3.4,1.8,5,0.8v10.6
					H6.3z M0.3,10.3v-4c0-1.1,0.9-2,2-2s2,0.9,2,2v4H0.3z M-5.7-5.7h4v2c0,1.1-0.9,2-2,2s-2-0.9-2-2V-5.7L-5.7-5.7z M4.3-5.7v2
					c0,1.1-0.9,2-2,2s-2-0.9-2-2v-2L4.3-5.7L4.3-5.7z M4.3-7.7h-12v20h20v-20H4.3z"/>
			</g>
		</g>
	</g>
</g>
</svg>
